<svg width="18" height="18" viewBox="0 0 18 18" fill="none" xmlns="http://www.w3.org/2000/svg">
<g id="blockchain">
<path id="Vector" d="M11.6848 6.31503L12.6726 9.82936C12.7093 9.95994 12.6727 10.1001 12.5767 10.196L10.2088 12.564C10.1129 12.6599 9.97268 12.6965 9.84218 12.6599L6.32779 11.672M11.6848 6.31503L8.17042 5.3272C8.03985 5.29051 7.89967 5.32716 7.80375 5.42305L5.43581 7.79101C5.33992 7.88694 5.30327 8.02711 5.33997 8.15769L6.32779 11.672M11.6848 6.31503L12.7121 5.28771M6.32779 11.672L5.28747 12.7124M12.7121 5.28771C13.2979 5.8735 14.2476 5.8735 14.8334 5.28771C15.4192 4.70192 15.4192 3.75217 14.8334 3.16639C14.2476 2.58061 13.2979 2.58061 12.7121 3.16639C12.1263 3.75217 12.1263 4.70192 12.7121 5.28771ZM5.28747 12.7124C5.87325 13.2981 5.87325 14.2478 5.28747 14.8337C4.70168 15.4194 3.75193 15.4194 3.16615 14.8337C2.58036 14.2478 2.58036 13.2981 3.16615 12.7124C3.75193 12.1265 4.70168 12.1265 5.28747 12.7124ZM10.9243 4.42385L8.39767 3.75974C7.88182 3.62416 7.33283 3.77268 6.9557 4.14981L4.14933 6.95617C3.7722 7.3333 3.62368 7.88229 3.75927 8.39814L4.42338 10.9247M13.576 7.0755L14.24 9.60211C14.3756 10.118 14.2271 10.667 13.85 11.0441L11.0436 13.8505C10.6665 14.2276 10.1175 14.3761 9.60165 14.2406L7.07503 13.5764" stroke="#BABABA" stroke-width="1.25" stroke-linecap="round"/>
</g>
</svg>
