<svg width="16" height="16" viewBox="0 0 16 16" fill="none" xmlns="http://www.w3.org/2000/svg">
<g id="bin">
<path id="Vector" d="M12 4.66671H12.3333C12.7015 4.66671 13 4.36823 13 4.00004V3.66671C13 3.29852 12.7015 3.00004 12.3333 3.00004H10.3333M12 4.66671V12.6667C12 13.4031 11.4031 14 10.6667 14H5.33333C4.59695 14 4 13.4031 4 12.6667V4.66671M12 4.66671H4M10.3333 3.00004V2.66671C10.3333 1.93033 9.7364 1.33337 9 1.33337H7C6.26362 1.33337 5.66667 1.93033 5.66667 2.66671V3.00004M10.3333 3.00004H5.66667M4 4.66671H3.66667C3.29848 4.66671 3 4.36823 3 4.00004V3.66671C3 3.29852 3.29848 3.00004 3.66667 3.00004H5.66667M6.66667 7.00004V11.6667M9.33333 7.00004V11.6667" stroke="#F42626" stroke-width="0.833333" stroke-linecap="round"/>
</g>
</svg>
