<svg width="18" height="18" viewBox="0 0 18 18" fill="none" xmlns="http://www.w3.org/2000/svg">
<g id="emoji-smile">
<path id="Vector" d="M11.2826 12.5769C10.022 13.6475 7.97804 13.6475 6.71739 12.5769M9 5.37692C5.57823 5.37692 2.80435 7.73259 2.80435 10.6385C2.80435 13.5443 5.57823 15.9 9 15.9C12.4218 15.9 15.1957 13.5443 15.1957 10.6385C15.1957 7.73259 12.4218 5.37692 9 5.37692ZM9 5.37692V3.99231M9 3.99231C9.36018 3.99231 9.65217 3.74435 9.65217 3.43846C9.65217 3.13258 9.36018 2.88462 9 2.88462C8.63982 2.88462 8.34783 3.13258 8.34783 3.43846C8.34783 3.74435 8.63982 3.99231 9 3.99231ZM10.9565 3.43846H12.2609M10.6304 2.33077L11.6087 1.5M7.125 3.43846H6.06522M7.36956 2.33077L6.3913 1.5M7.69565 9.53077C7.69565 9.83666 7.40366 10.0846 7.04348 10.0846C6.6833 10.0846 6.3913 9.83666 6.3913 9.53077C6.3913 9.22489 6.6833 8.97692 7.04348 8.97692C7.40366 8.97692 7.69565 9.22489 7.69565 9.53077ZM11.6087 9.53077C11.6087 9.83666 11.3167 10.0846 10.9565 10.0846C10.5963 10.0846 10.3043 9.83666 10.3043 9.53077C10.3043 9.22489 10.5963 8.97692 10.9565 8.97692C11.3167 8.97692 11.6087 9.22489 11.6087 9.53077ZM16.5 10.0846C16.5 10.3905 16.208 10.9154 15.8478 10.9154C15.4876 10.9154 15.1957 10.3905 15.1957 10.0846C15.1957 9.77874 15.4876 9.53077 15.8478 9.53077C16.208 9.53077 16.5 9.77874 16.5 10.0846ZM2.80435 10.0846C2.80435 10.3905 2.51237 10.9154 2.15217 10.9154C1.79198 10.9154 1.5 10.3905 1.5 10.0846C1.5 9.77874 1.79198 9.53077 2.15217 9.53077C2.51237 9.53077 2.80435 9.77874 2.80435 10.0846Z" stroke="#0066FF" stroke-width="1.25" stroke-linecap="round"/>
</g>
</svg>
