<svg width="24" height="24" viewBox="0 0 24 24" fill="none" xmlns="http://www.w3.org/2000/svg">
<g id="coin-dollar">
<path id="Vector" d="M12 6V18M9 14.5C9 15.3284 9.67157 16 10.5 16H13C14.1046 16 15 15.1046 15 14C15 12.8954 14.1046 12 13 12H11C9.89543 12 9 11.1046 9 10C9 8.89543 9.89543 8 11 8H13C14.1046 8 15 8.89543 15 10M21.5 12C21.5 17.2467 17.2467 21.5 12 21.5C6.75329 21.5 2.5 17.2467 2.5 12C2.5 6.75329 6.75329 2.5 12 2.5C17.2467 2.5 21.5 6.75329 21.5 12Z" stroke="white" stroke-width="1.25" stroke-linecap="round"/>
</g>
</svg>
