<svg width="24" height="24" viewBox="0 0 24 24" fill="none" xmlns="http://www.w3.org/2000/svg">
<g id="comments">
<path id="Vector" d="M8.93456 16.6015C9.88673 17.7772 11.1182 18.4159 12.499 18.7676C13.2486 18.9588 15.188 18.632 15.687 19.0706C16.7382 20.0232 17.9443 20.6258 19.2839 20.9298C19.4058 20.9572 19.5307 20.9747 19.6541 20.9938C19.8105 21.0184 19.9385 20.9719 20.0188 20.8144C20.0985 20.6569 20.0695 20.5137 19.97 20.3835C19.8542 20.2326 19.7364 20.0828 19.61 19.9439C19.2427 19.5421 18.9519 19.0695 18.7509 18.5531C18.6068 18.1828 18.7678 17.7814 19.0829 17.5393C19.1495 17.4881 19.2153 17.4359 19.2799 17.3819C19.8827 16.8827 20.3834 16.2855 20.6902 15.5265C21.1883 14.296 21.0761 13.1083 20.423 11.979C19.911 11.0935 19.2114 10.4587 18.3918 10M4.7201 11.3819C4.78468 11.4359 4.85049 11.4881 4.9171 11.5393C5.23224 11.7814 5.39317 12.1828 5.24906 12.5531C5.04814 13.0695 4.75727 13.5421 4.39004 13.9439C4.2636 14.0828 4.14578 14.2326 4.03 14.3835C3.93046 14.5137 3.90152 14.657 3.98125 14.8144C4.06148 14.9719 4.18946 15.0184 4.34586 14.9938C4.46927 14.9747 4.59419 14.9572 4.71607 14.9298C6.05575 14.6258 7.26179 14.0232 8.31298 13.0706C8.81196 12.632 10.7514 12.9588 11.501 12.7676C12.8818 12.4159 14.1133 11.7772 15.0654 10.6015C16.2405 9.15016 16.3152 7.19248 15.2457 5.66122C14.4998 4.59431 13.4933 3.92552 12.3385 3.50881C10.3645 2.79626 8.38964 2.83455 6.43752 3.60834C5.25983 4.0748 4.25438 4.80764 3.57695 5.979C2.92388 7.10833 2.81167 8.29603 3.30984 9.52645C3.6166 10.2855 4.11732 10.8827 4.7201 11.3819Z" stroke="white" stroke-width="1.5" stroke-linecap="round"/>
</g>
</svg>
