<svg xmlns="http://www.w3.org/2000/svg" width="18" height="18" viewBox="0 0 18 18" fill="none">
  <path d="M11.9996 12.375H14.6246C15.4531 12.375 16.1612 11.6634 15.7708 10.9327C15.1288 9.73147 13.6818 9 11.9996 9C11.1765 9 10.4119 9.16688 9.77077 9.4773M2.22851 12.8077C2.8705 11.6065 4.31748 10.875 5.99964 10.875C7.6818 10.875 9.12877 11.6065 9.77077 12.8077C10.1612 13.5384 9.45307 14.25 8.62462 14.25H3.37464C2.54621 14.25 1.83805 13.5384 2.22851 12.8077ZM7.87462 6.75C7.87462 7.78552 7.03517 8.625 5.99964 8.625C4.96411 8.625 4.12464 7.78552 4.12464 6.75C4.12464 5.71447 4.96411 4.875 5.99964 4.875C7.03517 4.875 7.87462 5.71447 7.87462 6.75ZM13.8746 4.875C13.8746 5.91053 13.0351 6.75 11.9996 6.75C10.9641 6.75 10.1246 5.91053 10.1246 4.875C10.1246 3.83947 10.9641 3 11.9996 3C13.0351 3 13.8746 3.83947 13.8746 4.875Z" stroke="#0066FF" stroke-width="0.9375" stroke-linecap="round"/>
</svg>