<svg width="24" height="24" viewBox="0 0 24 24" fill="none" xmlns="http://www.w3.org/2000/svg">
<g id="dashboard-2">
<path id="Vector" d="M5.17157 18.8284C4 17.6569 4 15.7712 4 12C4 8.22876 4 6.34315 5.17157 5.17157C6.34315 4 8.22876 4 12 4C15.7712 4 17.6569 4 18.8284 5.17157C20 6.34315 20 8.22876 20 12C20 15.7712 20 17.6569 18.8284 18.8284C17.6569 20 15.7712 20 12 20C8.22876 20 6.34315 20 5.17157 18.8284Z" stroke="#EFF3F5" stroke-width="1.25" stroke-linecap="round"/>
<path id="Vector_2" d="M7.5 14.5C7.5 13.9477 7.94772 13.5 8.5 13.5H9.5C10.0523 13.5 10.5 13.9477 10.5 14.5V15.5C10.5 16.0523 10.0523 16.5 9.5 16.5H8.5C7.94772 16.5 7.5 16.0523 7.5 15.5V14.5Z" stroke="#EFF3F5" stroke-width="1.25" stroke-linecap="round"/>
<path id="Vector_3" d="M13.5 14.5C13.5 13.9477 13.9477 13.5 14.5 13.5H15.5C16.0523 13.5 16.5 13.9477 16.5 14.5V15.5C16.5 16.0523 16.0523 16.5 15.5 16.5H14.5C13.9477 16.5 13.5 16.0523 13.5 15.5V14.5Z" stroke="#EFF3F5" stroke-width="1.25" stroke-linecap="round"/>
<path id="Vector_4" d="M7.5 8.5C7.5 7.94772 7.94772 7.5 8.5 7.5H9.5C10.0523 7.5 10.5 7.94772 10.5 8.5V9.5C10.5 10.0523 10.0523 10.5 9.5 10.5H8.5C7.94772 10.5 7.5 10.0523 7.5 9.5V8.5Z" stroke="#EFF3F5" stroke-width="1.25" stroke-linecap="round"/>
<path id="Vector_5" d="M13.5 8.5C13.5 7.94772 13.9477 7.5 14.5 7.5H15.5C16.0523 7.5 16.5 7.94772 16.5 8.5V9.5C16.5 10.0523 16.0523 10.5 15.5 10.5H14.5C13.9477 10.5 13.5 10.0523 13.5 9.5V8.5Z" stroke="#EFF3F5" stroke-width="1.25" stroke-linecap="round"/>
</g>
</svg>
