<svg width="16" height="16" viewBox="0 0 16 16" fill="none" xmlns="http://www.w3.org/2000/svg">
<g id="eye-visible">
<path id="Vector" d="M13.6605 7.4288C13.8907 7.77973 13.8907 8.22027 13.6605 8.5712C12.9354 9.6764 11.0486 12 7.99989 12C4.95123 12 3.06436 9.6764 2.33928 8.5712C2.10907 8.22027 2.10907 7.77973 2.33928 7.4288C3.06436 6.32357 4.95123 4 7.99989 4C11.0486 4 12.9354 6.32357 13.6605 7.4288Z" stroke="#0066FF" stroke-width="0.833333" stroke-linecap="round"/>
<path id="Vector_2" d="M9.9999 8C9.9999 9.1046 9.10443 10 7.9999 10C6.8953 10 5.99988 9.1046 5.99988 8C5.99988 6.8954 6.8953 6 7.9999 6C9.10443 6 9.9999 6.8954 9.9999 8Z" stroke="#0066FF" stroke-width="0.833333" stroke-linecap="round"/>
</g>
</svg>
