<svg width="44" height="44" viewBox="0 0 44 44" fill="none" xmlns="http://www.w3.org/2000/svg">
<g id="Logo small">
<g id="Vector">
<path fill-rule="evenodd" clip-rule="evenodd" d="M9.7399 16.4049C11.5157 12.5763 15.0383 9.6309 19.0049 8.65797C21.12 8.13904 22.6338 8.14547 24.8885 8.6834C31.4542 10.2488 35.6349 15.4295 35.641 22.0072C35.6461 27.8242 32.2983 32.7375 26.8466 34.9149C24.21 35.9678 19.8233 35.8937 16.9347 34.7471L14.8145 33.9059L12.458 34.4417C9.49425 35.1159 9.28919 34.9707 9.77199 32.5405C10.273 30.0169 10.2133 29.2205 9.33009 26.6319C8.64314 24.6187 8.5556 23.9386 8.65797 21.4012C8.75853 18.9089 8.91604 18.1817 9.7399 16.4049ZM15.8209 24.4481C13.7671 24.4661 12.7479 22.0755 14.0793 20.3637C15.6846 18.2996 19.203 20.3646 18.2774 22.8272C17.8524 23.9573 17.1258 24.4367 15.8209 24.4481ZM25.7232 22.6419C25.5161 21.6886 26.1591 20.0417 26.8479 19.7614C28.6434 19.0308 30.716 20.2341 30.716 22.0072C30.716 24.8319 26.3202 25.3907 25.7232 22.6419Z" fill="white"/>
<path d="M19.1345 4.2498C13.3149 5.2408 8.74945 8.80839 5.78691 14.6802C5.37589 15.4951 4.77496 15.9871 3.36381 16.6644C1.84816 17.3919 1.34658 17.8254 0.755347 18.9181C-0.791498 21.7774 0.125946 25.6498 2.69988 27.1239C3.8981 27.8104 6.29031 28.0876 6.60289 27.5764C6.68739 27.4382 6.56866 26.2328 6.33968 24.8975C5.08906 17.6137 8.61375 10.6152 15.1173 7.46909C21.561 4.35212 28.3369 5.5358 33.4532 10.6727C39.9741 17.2201 39.6857 27.8049 32.815 34.0774C31.0647 35.6753 27.2398 37.7167 26.1009 37.6612C25.7239 37.6426 24.1516 37.5455 22.6072 37.445C19.3217 37.2315 18.2977 37.63 18.2977 39.1215C18.2977 40.6223 19.0682 41 22.1304 41C24.6456 41 24.9103 40.9409 25.567 40.2342C25.9583 39.813 26.4868 39.4683 26.7415 39.4683C26.9963 39.4683 28.4538 38.8538 29.98 38.103C33.1616 36.5376 35.6579 34.2349 37.3535 31.3014C37.922 30.3175 38.565 29.214 38.7822 28.8492C38.9994 28.4843 39.955 27.7951 40.9058 27.3175C43.2771 26.1262 44.1348 24.551 43.9831 21.6674C43.828 18.7162 42.3832 16.9223 39.4864 16.0836C39.229 16.0091 38.5517 15.0022 37.9811 13.8464C36.5054 10.8569 33.1022 7.45101 30.1103 5.96927C26.5147 4.18884 22.8573 3.61568 19.1345 4.2498Z" fill="#0066FF"/>
</g>
</g>
</svg>
