<svg xmlns="http://www.w3.org/2000/svg" width="32" height="32" viewBox="0 0 32 32" fill="none">
<g clipPath="url(#clip0_158_3663)">
<path fill-rule="evenodd" clip-rule="evenodd" d="M7.08356 11.9309C8.37507 9.1465 10.9369 7.00438 13.8217 6.2968C15.36 5.91939 16.4609 5.92407 18.1007 6.31529C22.8758 7.45374 25.9163 11.2216 25.9207 16.0053C25.9245 20.2359 23.4897 23.8092 19.5248 25.3928C17.6073 26.1585 14.4169 26.1046 12.3161 25.2707L10.7742 24.6589L9.06036 25.0486C6.90491 25.5389 6.75577 25.4333 7.1069 23.6659C7.47125 21.8306 7.42786 21.2513 6.78552 19.3688C6.28592 17.9046 6.22225 17.41 6.29671 15.5646C6.36984 13.752 6.4844 13.2231 7.08356 11.9309ZM11.5061 17.7805C10.0124 17.7936 9.27117 16.055 10.2395 14.81C11.407 13.3089 13.9658 14.8107 13.2926 16.6017C12.9836 17.4236 12.4551 17.7723 11.5061 17.7805ZM18.7078 16.4669C18.5571 15.7736 19.0248 14.5759 19.5257 14.372C20.8315 13.8407 22.3389 14.7158 22.3389 16.0053C22.3389 18.0597 19.142 18.466 18.7078 16.4669Z" fill="#002E66"/>
<path d="M13.916 3.09085C9.68354 3.81158 6.36323 6.40619 4.20866 10.6766C3.90974 11.2692 3.4727 11.627 2.44641 12.1196C1.34412 12.6488 0.979333 12.964 0.549343 13.7587C-0.575635 15.8382 0.0915971 18.6545 1.96355 19.7266C2.83498 20.2258 4.57477 20.4275 4.8021 20.0556C4.86356 19.9551 4.77721 19.0785 4.61067 18.1073C3.70113 12.8101 6.26455 7.7202 10.9944 5.43215C15.6807 3.16526 20.6086 4.02612 24.3296 7.76209C29.0721 12.5238 28.8623 20.2218 23.8655 24.7837C22.5925 25.9457 19.8108 27.4304 18.9825 27.3901C18.7083 27.3765 17.5648 27.3059 16.4416 27.2328C14.0522 27.0775 13.3074 27.3674 13.3074 28.4521C13.3074 29.5436 13.8678 29.8183 16.0948 29.8183C17.924 29.8183 18.1166 29.7753 18.5941 29.2613C18.8787 28.955 19.2631 28.7043 19.4484 28.7043C19.6337 28.7043 20.6937 28.2574 21.8037 27.7113C24.1175 26.5729 25.933 24.8982 27.1662 22.7647C27.5797 22.0491 28.0473 21.2467 28.2052 20.9813C28.3632 20.716 29.0582 20.2147 29.7496 19.8674C31.4742 19.0009 32.0981 17.8554 31.9877 15.7582C31.8749 13.6119 30.8242 12.3072 28.7174 11.6972C28.5302 11.6431 28.0376 10.9108 27.6226 10.0702C26.5494 7.89598 24.0743 5.41901 21.8984 4.34137C19.2834 3.04652 16.6235 2.62968 13.916 3.09085Z" fill="#0066FF"/>
</g>
<defs>
<clipPath id="clip0_158_3663">
<rect width="32" height="32" fill="white"/>
</clipPath>
</defs>
</svg>