<svg width="24" height="24" viewBox="0 0 24 24" fill="none" xmlns="http://www.w3.org/2000/svg">
<g id="ticket">
<path id="Vector" d="M8.125 9C8.125 8.65482 7.84518 8.375 7.5 8.375C7.15482 8.375 6.875 8.65482 6.875 9H8.125ZM6.875 11C6.875 11.3452 7.15482 11.625 7.5 11.625C7.84518 11.625 8.125 11.3452 8.125 11H6.875ZM8.125 13C8.125 12.6548 7.84518 12.375 7.5 12.375C7.15482 12.375 6.875 12.6548 6.875 13H8.125ZM6.875 15C6.875 15.3452 7.15482 15.625 7.5 15.625C7.84518 15.625 8.125 15.3452 8.125 15H6.875ZM8.125 17C8.125 16.6548 7.84518 16.375 7.5 16.375C7.15482 16.375 6.875 16.6548 6.875 17H8.125ZM7.5 18H6.875C6.875 18.3452 7.15482 18.625 7.5 18.625V18ZM6.875 7C6.875 7.34518 7.15482 7.625 7.5 7.625C7.84518 7.625 8.125 7.34518 8.125 7H6.875ZM8.125 6C8.125 5.65482 7.84518 5.375 7.5 5.375C7.15482 5.375 6.875 5.65482 6.875 6H8.125ZM10.5 14.375C10.1548 14.375 9.875 14.6548 9.875 15C9.875 15.3452 10.1548 15.625 10.5 15.625V14.375ZM17 15.625C17.3452 15.625 17.625 15.3452 17.625 15C17.625 14.6548 17.3452 14.375 17 14.375V15.625ZM10.5 11.375C10.1548 11.375 9.875 11.6548 9.875 12C9.875 12.3452 10.1548 12.625 10.5 12.625V11.375ZM14 12.625C14.3452 12.625 14.625 12.3452 14.625 12C14.625 11.6548 14.3452 11.375 14 11.375V12.625ZM20.041 10.2445L19.7409 9.69627L19.7409 9.69628L20.041 10.2445ZM20.041 13.7555L19.7409 14.3037L19.7409 14.3037L20.041 13.7555ZM3.95897 13.7555L3.65886 13.2073H3.65886L3.95897 13.7555ZM3.95897 10.2445L3.65884 10.7927L3.65886 10.7927L3.95897 10.2445ZM5.625 17C5.625 16.6548 5.34518 16.375 5 16.375C4.65482 16.375 4.375 16.6548 4.375 17H5.625ZM4.375 23C4.375 23.3452 4.65482 23.625 5 23.625C5.34518 23.625 5.625 23.3452 5.625 23H4.375ZM2 19.375C1.65482 19.375 1.375 19.6548 1.375 20C1.375 20.3452 1.65482 20.625 2 20.625V19.375ZM8 20.625C8.34518 20.625 8.625 20.3452 8.625 20C8.625 19.6548 8.34518 19.375 8 19.375V20.625ZM2.375 18C2.375 18.3452 2.65482 18.625 3 18.625C3.34518 18.625 3.625 18.3452 3.625 18H2.375ZM6.875 9V11H8.125V9H6.875ZM6.875 13V15H8.125V13H6.875ZM6.875 17V18H8.125V17H6.875ZM8.125 7V6H6.875V7H8.125ZM10.5 15.625H17V14.375H10.5V15.625ZM10.5 12.625H14V11.375H10.5V12.625ZM5 6.625H19V5.375H5V6.625ZM19 6.625C19.7594 6.625 20.375 7.2406 20.375 8H21.625C21.625 6.55026 20.4498 5.375 19 5.375V6.625ZM20.375 8V9H21.625V8H20.375ZM20.375 9C20.375 9.08601 20.3402 9.19192 20.2278 9.32303C20.1126 9.45731 19.9406 9.58693 19.7409 9.69627L20.3411 10.7927C20.6259 10.6368 20.9334 10.4204 21.1766 10.1368C21.4225 9.85001 21.625 9.46628 21.625 9H20.375ZM19.7409 9.69628C18.9284 10.1411 18.375 11.0054 18.375 12H19.625C19.625 11.4804 19.913 11.0271 20.3411 10.7927L19.7409 9.69628ZM18.375 12C18.375 12.9946 18.9284 13.8589 19.7409 14.3037L20.3411 13.2073C19.913 12.9729 19.625 12.5196 19.625 12H18.375ZM19.7409 14.3037C19.9406 14.4131 20.1126 14.5427 20.2278 14.677C20.3402 14.8081 20.375 14.914 20.375 15H21.625C21.625 14.5337 21.4226 14.15 21.1766 13.8632C20.9334 13.5796 20.6259 13.3631 20.3411 13.2073L19.7409 14.3037ZM20.375 15V16H21.625V15H20.375ZM20.375 16C20.375 16.7594 19.7594 17.375 19 17.375V18.625C20.4498 18.625 21.625 17.4498 21.625 16H20.375ZM19 17.375H7.5V18.625H19V17.375ZM3.625 15C3.625 14.914 3.6598 14.8081 3.77224 14.677C3.88741 14.5427 4.05938 14.4131 4.25908 14.3037L3.65886 13.2073C3.37411 13.3631 3.0666 13.5796 2.82339 13.8632C2.57746 14.15 2.375 14.5337 2.375 15H3.625ZM4.25908 14.3037C5.07168 13.8589 5.625 12.9945 5.625 12H4.375C4.375 12.5197 4.08698 12.9729 3.65886 13.2073L4.25908 14.3037ZM5.625 12C5.625 11.0055 5.07168 10.1411 4.25908 9.69627L3.65886 10.7927C4.08698 11.0271 4.375 11.4803 4.375 12H5.625ZM4.2591 9.69628C4.05939 9.58694 3.88741 9.45732 3.77224 9.32303C3.6598 9.19192 3.625 9.086 3.625 9H2.375C2.375 9.46629 2.57746 9.85001 2.82339 10.1368C3.06659 10.4204 3.3741 10.6368 3.65884 10.7927L4.2591 9.69628ZM3.625 9V8H2.375V9H3.625ZM3.625 8C3.625 7.24061 4.24061 6.625 5 6.625V5.375C3.55025 5.375 2.375 6.55025 2.375 8H3.625ZM5.625 20V17H4.375V20H5.625ZM4.375 20V23H5.625V20H4.375ZM5 19.375H2V20.625H5V19.375ZM5 20.625H8V19.375H5V20.625ZM2.375 15C2.375 15.002 2.375 15.0039 2.375 15.0059C2.375 15.0078 2.375 15.0098 2.375 15.0117C2.375 15.0137 2.375 15.0157 2.375 15.0176C2.375 15.0196 2.375 15.0216 2.375 15.0235C2.375 15.0255 2.375 15.0275 2.375 15.0294C2.375 15.0314 2.375 15.0334 2.375 15.0354C2.375 15.0373 2.375 15.0393 2.375 15.0413C2.375 15.0433 2.375 15.0453 2.375 15.0472C2.375 15.0492 2.375 15.0512 2.375 15.0532C2.375 15.0552 2.375 15.0572 2.375 15.0592C2.375 15.0611 2.375 15.0631 2.375 15.0651C2.375 15.0671 2.375 15.0691 2.375 15.0711C2.375 15.0731 2.375 15.0751 2.375 15.0771C2.375 15.0791 2.375 15.0811 2.375 15.0831C2.375 15.0851 2.375 15.0871 2.375 15.0891C2.375 15.0911 2.375 15.0932 2.375 15.0952C2.375 15.0972 2.375 15.0992 2.375 15.1012C2.375 15.1032 2.375 15.1052 2.375 15.1073C2.375 15.1093 2.375 15.1113 2.375 15.1133C2.375 15.1153 2.375 15.1174 2.375 15.1194C2.375 15.1214 2.375 15.1234 2.375 15.1255C2.375 15.1275 2.375 15.1295 2.375 15.1316C2.375 15.1336 2.375 15.1356 2.375 15.1377C2.375 15.1397 2.375 15.1417 2.375 15.1438C2.375 15.1458 2.375 15.1478 2.375 15.1499C2.375 15.1519 2.375 15.154 2.375 15.156C2.375 15.1581 2.375 15.1601 2.375 15.1622C2.375 15.1642 2.375 15.1663 2.375 15.1683C2.375 15.1704 2.375 15.1724 2.375 15.1745C2.375 15.1765 2.375 15.1786 2.375 15.1806C2.375 15.1827 2.375 15.1847 2.375 15.1868C2.375 15.1889 2.375 15.1909 2.375 15.193C2.375 15.1951 2.375 15.1971 2.375 15.1992C2.375 15.2013 2.375 15.2033 2.375 15.2054C2.375 15.2075 2.375 15.2095 2.375 15.2116C2.375 15.2137 2.375 15.2158 2.375 15.2178C2.375 15.2199 2.375 15.222 2.375 15.2241C2.375 15.2261 2.375 15.2282 2.375 15.2303C2.375 15.2324 2.375 15.2345 2.375 15.2366C2.375 15.2386 2.375 15.2407 2.375 15.2428C2.375 15.2449 2.375 15.247 2.375 15.2491C2.375 15.2512 2.375 15.2533 2.375 15.2554C2.375 15.2575 2.375 15.2595 2.375 15.2616C2.375 15.2637 2.375 15.2658 2.375 15.2679C2.375 15.27 2.375 15.2721 2.375 15.2742C2.375 15.2763 2.375 15.2784 2.375 15.2806C2.375 15.2827 2.375 15.2848 2.375 15.2869C2.375 15.289 2.375 15.2911 2.375 15.2932C2.375 15.2953 2.375 15.2974 2.375 15.2995C2.375 15.3016 2.375 15.3038 2.375 15.3059C2.375 15.308 2.375 15.3101 2.375 15.3122C2.375 15.3143 2.375 15.3165 2.375 15.3186C2.375 15.3207 2.375 15.3228 2.375 15.325C2.375 15.3271 2.375 15.3292 2.375 15.3313C2.375 15.3335 2.375 15.3356 2.375 15.3377C2.375 15.3398 2.375 15.342 2.375 15.3441C2.375 15.3462 2.375 15.3484 2.375 15.3505C2.375 15.3526 2.375 15.3548 2.375 15.3569C2.375 15.359 2.375 15.3612 2.375 15.3633C2.375 15.3655 2.375 15.3676 2.375 15.3697C2.375 15.3719 2.375 15.374 2.375 15.3762C2.375 15.3783 2.375 15.3805 2.375 15.3826C2.375 15.3848 2.375 15.3869 2.375 15.3891C2.375 15.3912 2.375 15.3934 2.375 15.3955C2.375 15.3977 2.375 15.3998 2.375 15.402C2.375 15.4041 2.375 15.4063 2.375 15.4084C2.375 15.4106 2.375 15.4127 2.375 15.4149C2.375 15.4171 2.375 15.4192 2.375 15.4214C2.375 15.4235 2.375 15.4257 2.375 15.4279C2.375 15.43 2.375 15.4322 2.375 15.4344C2.375 15.4365 2.375 15.4387 2.375 15.4409C2.375 15.443 2.375 15.4452 2.375 15.4474C2.375 15.4495 2.375 15.4517 2.375 15.4539C2.375 15.4561 2.375 15.4582 2.375 15.4604C2.375 15.4626 2.375 15.4647 2.375 15.4669C2.375 15.4691 2.375 15.4713 2.375 15.4735C2.375 15.4756 2.375 15.4778 2.375 15.48C2.375 15.4822 2.375 15.4844 2.375 15.4865C2.375 15.4887 2.375 15.4909 2.375 15.4931C2.375 15.4953 2.375 15.4975 2.375 15.4996C2.375 15.5018 2.375 15.504 2.375 15.5062C2.375 15.5084 2.375 15.5106 2.375 15.5128C2.375 15.515 2.375 15.5172 2.375 15.5194C2.375 15.5216 2.375 15.5237 2.375 15.5259C2.375 15.5281 2.375 15.5303 2.375 15.5325C2.375 15.5347 2.375 15.5369 2.375 15.5391C2.375 15.5413 2.375 15.5435 2.375 15.5457C2.375 15.5479 2.375 15.5501 2.375 15.5523C2.375 15.5545 2.375 15.5567 2.375 15.5589C2.375 15.5611 2.375 15.5633 2.375 15.5655C2.375 15.5678 2.375 15.57 2.375 15.5722C2.375 15.5744 2.375 15.5766 2.375 15.5788C2.375 15.581 2.375 15.5832 2.375 15.5854C2.375 15.5876 2.375 15.5898 2.375 15.5921C2.375 15.5943 2.375 15.5965 2.375 15.5987C2.375 15.6009 2.375 15.6031 2.375 15.6053C2.375 15.6076 2.375 15.6098 2.375 15.612C2.375 15.6142 2.375 15.6164 2.375 15.6187C2.375 15.6209 2.375 15.6231 2.375 15.6253C2.375 15.6275 2.375 15.6298 2.375 15.632C2.375 15.6342 2.375 15.6364 2.375 15.6387C2.375 15.6409 2.375 15.6431 2.375 15.6453C2.375 15.6476 2.375 15.6498 2.375 15.652C2.375 15.6542 2.375 15.6565 2.375 15.6587C2.375 15.6609 2.375 15.6632 2.375 15.6654C2.375 15.6676 2.375 15.6698 2.375 15.6721C2.375 15.6743 2.375 15.6765 2.375 15.6788C2.375 15.681 2.375 15.6832 2.375 15.6855C2.375 15.6877 2.375 15.6899 2.375 15.6922C2.375 15.6944 2.375 15.6967 2.375 15.6989C2.375 15.7011 2.375 15.7034 2.375 15.7056C2.375 15.7078 2.375 15.7101 2.375 15.7123C2.375 15.7146 2.375 15.7168 2.375 15.719C2.375 15.7213 2.375 15.7235 2.375 15.7258C2.375 15.728 2.375 15.7303 2.375 15.7325C2.375 15.7347 2.375 15.737 2.375 15.7392C2.375 15.7415 2.375 15.7437 2.375 15.746C2.375 15.7482 2.375 15.7505 2.375 15.7527C2.375 15.755 2.375 15.7572 2.375 15.7595C2.375 15.7617 2.375 15.764 2.375 15.7662C2.375 15.7685 2.375 15.7707 2.375 15.773C2.375 15.7752 2.375 15.7775 2.375 15.7797C2.375 15.782 2.375 15.7842 2.375 15.7865C2.375 15.7887 2.375 15.791 2.375 15.7932C2.375 15.7955 2.375 15.7977 2.375 15.8C2.375 15.8023 2.375 15.8045 2.375 15.8068C2.375 15.809 2.375 15.8113 2.375 15.8135C2.375 15.8158 2.375 15.8181 2.375 15.8203C2.375 15.8226 2.375 15.8248 2.375 15.8271C2.375 15.8293 2.375 15.8316 2.375 15.8339C2.375 15.8361 2.375 15.8384 2.375 15.8406C2.375 15.8429 2.375 15.8452 2.375 15.8474C2.375 15.8497 2.375 15.852 2.375 15.8542C2.375 15.8565 2.375 15.8587 2.375 15.861C2.375 15.8633 2.375 15.8655 2.375 15.8678C2.375 15.8701 2.375 15.8723 2.375 15.8746C2.375 15.8769 2.375 15.8791 2.375 15.8814C2.375 15.8837 2.375 15.8859 2.375 15.8882C2.375 15.8905 2.375 15.8927 2.375 15.895C2.375 15.8973 2.375 15.8995 2.375 15.9018C2.375 15.9041 2.375 15.9063 2.375 15.9086C2.375 15.9109 2.375 15.9131 2.375 15.9154C2.375 15.9177 2.375 15.92 2.375 15.9222C2.375 15.9245 2.375 15.9268 2.375 15.929C2.375 15.9313 2.375 15.9336 2.375 15.9358C2.375 15.9381 2.375 15.9404 2.375 15.9427C2.375 15.9449 2.375 15.9472 2.375 15.9495C2.375 15.9517 2.375 15.954 2.375 15.9563C2.375 15.9586 2.375 15.9608 2.375 15.9631C2.375 15.9654 2.375 15.9677 2.375 15.9699C2.375 15.9722 2.375 15.9745 2.375 15.9768C2.375 15.979 2.375 15.9813 2.375 15.9836C2.375 15.9859 2.375 15.9881 2.375 15.9904C2.375 15.9927 2.375 15.995 2.375 15.9972C2.375 15.9995 2.375 16.0018 2.375 16.0041C2.375 16.0063 2.375 16.0086 2.375 16.0109C2.375 16.0132 2.375 16.0154 2.375 16.0177C2.375 16.02 2.375 16.0223 2.375 16.0245C2.375 16.0268 2.375 16.0291 2.375 16.0314C2.375 16.0337 2.375 16.0359 2.375 16.0382C2.375 16.0405 2.375 16.0428 2.375 16.045C2.375 16.0473 2.375 16.0496 2.375 16.0519C2.375 16.0542 2.375 16.0564 2.375 16.0587C2.375 16.061 2.375 16.0633 2.375 16.0655C2.375 16.0678 2.375 16.0701 2.375 16.0724C2.375 16.0747 2.375 16.0769 2.375 16.0792C2.375 16.0815 2.375 16.0838 2.375 16.086C2.375 16.0883 2.375 16.0906 2.375 16.0929C2.375 16.0952 2.375 16.0974 2.375 16.0997C2.375 16.102 2.375 16.1043 2.375 16.1066C2.375 16.1088 2.375 16.1111 2.375 16.1134C2.375 16.1157 2.375 16.1179 2.375 16.1202C2.375 16.1225 2.375 16.1248 2.375 16.1271C2.375 16.1293 2.375 16.1316 2.375 16.1339C2.375 16.1362 2.375 16.1385 2.375 16.1407C2.375 16.143 2.375 16.1453 2.375 16.1476C2.375 16.1498 2.375 16.1521 2.375 16.1544C2.375 16.1567 2.375 16.159 2.375 16.1612C2.375 16.1635 2.375 16.1658 2.375 16.1681C2.375 16.1703 2.375 16.1726 2.375 16.1749C2.375 16.1772 2.375 16.1795 2.375 16.1817C2.375 16.184 2.375 16.1863 2.375 16.1886C2.375 16.1908 2.375 16.1931 2.375 16.1954C2.375 16.1977 2.375 16.2 2.375 16.2022C2.375 16.2045 2.375 16.2068 2.375 16.2091C2.375 16.2113 2.375 16.2136 2.375 16.2159C2.375 16.2182 2.375 16.2204 2.375 16.2227C2.375 16.225 2.375 16.2273 2.375 16.2295C2.375 16.2318 2.375 16.2341 2.375 16.2364C2.375 16.2386 2.375 16.2409 2.375 16.2432C2.375 16.2455 2.375 16.2477 2.375 16.25C2.375 16.2523 2.375 16.2546 2.375 16.2568C2.375 16.2591 2.375 16.2614 2.375 16.2637C2.375 16.2659 2.375 16.2682 2.375 16.2705C2.375 16.2727 2.375 16.275 2.375 16.2773C2.375 16.2796 2.375 16.2818 2.375 16.2841C2.375 16.2864 2.375 16.2886 2.375 16.2909C2.375 16.2932 2.375 16.2955 2.375 16.2977C2.375 16.3 2.375 16.3023 2.375 16.3045C2.375 16.3068 2.375 16.3091 2.375 16.3113C2.375 16.3136 2.375 16.3159 2.375 16.3182C2.375 16.3204 2.375 16.3227 2.375 16.325C2.375 16.3272 2.375 16.3295 2.375 16.3318C2.375 16.334 2.375 16.3363 2.375 16.3386C2.375 16.3408 2.375 16.3431 2.375 16.3454C2.375 16.3476 2.375 16.3499 2.375 16.3522C2.375 16.3544 2.375 16.3567 2.375 16.3589C2.375 16.3612 2.375 16.3635 2.375 16.3657C2.375 16.368 2.375 16.3703 2.375 16.3725C2.375 16.3748 2.375 16.377 2.375 16.3793C2.375 16.3816 2.375 16.3838 2.375 16.3861C2.375 16.3884 2.375 16.3906 2.375 16.3929C2.375 16.3951 2.375 16.3974 2.375 16.3997C2.375 16.4019 2.375 16.4042 2.375 16.4064C2.375 16.4087 2.375 16.4109 2.375 16.4132C2.375 16.4155 2.375 16.4177 2.375 16.42C2.375 16.4222 2.375 16.4245 2.375 16.4267C2.375 16.429 2.375 16.4312 2.375 16.4335C2.375 16.4357 2.375 16.438 2.375 16.4403C2.375 16.4425 2.375 16.4448 2.375 16.447C2.375 16.4493 2.375 16.4515 2.375 16.4538C2.375 16.456 2.375 16.4583 2.375 16.4605C2.375 16.4628 2.375 16.465 2.375 16.4673C2.375 16.4695 2.375 16.4718 2.375 16.474C2.375 16.4762 2.375 16.4785 2.375 16.4807C2.375 16.483 2.375 16.4852 2.375 16.4875C2.375 16.4897 2.375 16.492 2.375 16.4942C2.375 16.4964 2.375 16.4987 2.375 16.5009C2.375 16.5032 2.375 16.5054 2.375 16.5077C2.375 16.5099 2.375 16.5121 2.375 16.5144C2.375 16.5166 2.375 16.5189 2.375 16.5211C2.375 16.5233 2.375 16.5256 2.375 16.5278C2.375 16.53 2.375 16.5323 2.375 16.5345C2.375 16.5367 2.375 16.539 2.375 16.5412C2.375 16.5434 2.375 16.5457 2.375 16.5479C2.375 16.5501 2.375 16.5524 2.375 16.5546C2.375 16.5568 2.375 16.5591 2.375 16.5613C2.375 16.5635 2.375 16.5658 2.375 16.568C2.375 16.5702 2.375 16.5724 2.375 16.5747C2.375 16.5769 2.375 16.5791 2.375 16.5813C2.375 16.5836 2.375 16.5858 2.375 16.588C2.375 16.5902 2.375 16.5925 2.375 16.5947C2.375 16.5969 2.375 16.5991 2.375 16.6013C2.375 16.6036 2.375 16.6058 2.375 16.608C2.375 16.6102 2.375 16.6124 2.375 16.6147C2.375 16.6169 2.375 16.6191 2.375 16.6213C2.375 16.6235 2.375 16.6257 2.375 16.628C2.375 16.6302 2.375 16.6324 2.375 16.6346C2.375 16.6368 2.375 16.639 2.375 16.6412C2.375 16.6434 2.375 16.6456 2.375 16.6478C2.375 16.6501 2.375 16.6523 2.375 16.6545C2.375 16.6567 2.375 16.6589 2.375 16.6611C2.375 16.6633 2.375 16.6655 2.375 16.6677C2.375 16.6699 2.375 16.6721 2.375 16.6743C2.375 16.6765 2.375 16.6787 2.375 16.6809C2.375 16.6831 2.375 16.6853 2.375 16.6875C2.375 16.6897 2.375 16.6919 2.375 16.6941C2.375 16.6963 2.375 16.6985 2.375 16.7007C2.375 16.7029 2.375 16.7051 2.375 16.7072C2.375 16.7094 2.375 16.7116 2.375 16.7138C2.375 16.716 2.375 16.7182 2.375 16.7204C2.375 16.7226 2.375 16.7248 2.375 16.7269C2.375 16.7291 2.375 16.7313 2.375 16.7335C2.375 16.7357 2.375 16.7379 2.375 16.74C2.375 16.7422 2.375 16.7444 2.375 16.7466C2.375 16.7488 2.375 16.7509 2.375 16.7531C2.375 16.7553 2.375 16.7575 2.375 16.7596C2.375 16.7618 2.375 16.764 2.375 16.7662C2.375 16.7683 2.375 16.7705 2.375 16.7727C2.375 16.7749 2.375 16.777 2.375 16.7792C2.375 16.7814 2.375 16.7835 2.375 16.7857C2.375 16.7879 2.375 16.79 2.375 16.7922C2.375 16.7944 2.375 16.7965 2.375 16.7987C2.375 16.8008 2.375 16.803 2.375 16.8052C2.375 16.8073 2.375 16.8095 2.375 16.8116C2.375 16.8138 2.375 16.8159 2.375 16.8181C2.375 16.8203 2.375 16.8224 2.375 16.8246C2.375 16.8267 2.375 16.8289 2.375 16.831C2.375 16.8332 2.375 16.8353 2.375 16.8375C2.375 16.8396 2.375 16.8418 2.375 16.8439C2.375 16.846 2.375 16.8482 2.375 16.8503C2.375 16.8525 2.375 16.8546 2.375 16.8568C2.375 16.8589 2.375 16.861 2.375 16.8632C2.375 16.8653 2.375 16.8674 2.375 16.8696C2.375 16.8717 2.375 16.8739 2.375 16.876C2.375 16.8781 2.375 16.8802 2.375 16.8824C2.375 16.8845 2.375 16.8866 2.375 16.8888C2.375 16.8909 2.375 16.893 2.375 16.8951C2.375 16.8973 2.375 16.8994 2.375 16.9015C2.375 16.9036 2.375 16.9058 2.375 16.9079C2.375 16.91 2.375 16.9121 2.375 16.9142C2.375 16.9163 2.375 16.9185 2.375 16.9206C2.375 16.9227 2.375 16.9248 2.375 16.9269C2.375 16.929 2.375 16.9311 2.375 16.9332C2.375 16.9354 2.375 16.9375 2.375 16.9396C2.375 16.9417 2.375 16.9438 2.375 16.9459C2.375 16.948 2.375 16.9501 2.375 16.9522C2.375 16.9543 2.375 16.9564 2.375 16.9585C2.375 16.9606 2.375 16.9627 2.375 16.9648C2.375 16.9669 2.375 16.969 2.375 16.971C2.375 16.9731 2.375 16.9752 2.375 16.9773C2.375 16.9794 2.375 16.9815 2.375 16.9836C2.375 16.9857 2.375 16.9878 2.375 16.9898C2.375 16.9919 2.375 16.994 2.375 16.9961C2.375 16.9982 2.375 17.0002 2.375 17.0023C2.375 17.0044 2.375 17.0065 2.375 17.0085C2.375 17.0106 2.375 17.0127 2.375 17.0148C2.375 17.0168 2.375 17.0189 2.375 17.021C2.375 17.023 2.375 17.0251 2.375 17.0272C2.375 17.0292 2.375 17.0313 2.375 17.0334C2.375 17.0354 2.375 17.0375 2.375 17.0395C2.375 17.0416 2.375 17.0437 2.375 17.0457C2.375 17.0478 2.375 17.0498 2.375 17.0519C2.375 17.0539 2.375 17.056 2.375 17.058C2.375 17.0601 2.375 17.0621 2.375 17.0642C2.375 17.0662 2.375 17.0683 2.375 17.0703C2.375 17.0723 2.375 17.0744 2.375 17.0764C2.375 17.0785 2.375 17.0805 2.375 17.0825C2.375 17.0846 2.375 17.0866 2.375 17.0886C2.375 17.0907 2.375 17.0927 2.375 17.0947C2.375 17.0968 2.375 17.0988 2.375 17.1008C2.375 17.1028 2.375 17.1049 2.375 17.1069C2.375 17.1089 2.375 17.1109 2.375 17.1129C2.375 17.115 2.375 17.117 2.375 17.119C2.375 17.121 2.375 17.123 2.375 17.125C2.375 17.1271 2.375 17.1291 2.375 17.1311C2.375 17.1331 2.375 17.1351 2.375 17.1371C2.375 17.1391 2.375 17.1411 2.375 17.1431C2.375 17.1451 2.375 17.1471 2.375 17.1491C2.375 17.1511 2.375 17.1531 2.375 17.1551C2.375 17.1571 2.375 17.1591 2.375 17.1611C2.375 17.1631 2.375 17.1651 2.375 17.167C2.375 17.169 2.375 17.171 2.375 17.173C2.375 17.175 2.375 17.177 2.375 17.179C2.375 17.1809 2.375 17.1829 2.375 17.1849C2.375 17.1869 2.375 17.1888 2.375 17.1908C2.375 17.1928 2.375 17.1948 2.375 17.1967C2.375 17.1987 2.375 17.2007 2.375 17.2026C2.375 17.2046 2.375 17.2066 2.375 17.2085C2.375 17.2105 2.375 17.2124 2.375 17.2144C2.375 17.2164 2.375 17.2183 2.375 17.2203C2.375 17.2222 2.375 17.2242 2.375 17.2261C2.375 17.2281 2.375 17.23 2.375 17.232C2.375 17.2339 2.375 17.2359 2.375 17.2378C2.375 17.2397 2.375 17.2417 2.375 17.2436C2.375 17.2456 2.375 17.2475 2.375 17.2494C2.375 17.2514 2.375 17.2533 2.375 17.2552C2.375 17.2572 2.375 17.2591 2.375 17.261C2.375 17.263 2.375 17.2649 2.375 17.2668C2.375 17.2687 2.375 17.2706 2.375 17.2726C2.375 17.2745 2.375 17.2764 2.375 17.2783C2.375 17.2802 2.375 17.2821 2.375 17.2841C2.375 17.286 2.375 17.2879 2.375 17.2898C2.375 17.2917 2.375 17.2936 2.375 17.2955C2.375 17.2974 2.375 17.2993 2.375 17.3012C2.375 17.3031 2.375 17.305 2.375 17.3069C2.375 17.3088 2.375 17.3107 2.375 17.3126C2.375 17.3145 2.375 17.3164 2.375 17.3182C2.375 17.3201 2.375 17.322 2.375 17.3239C2.375 17.3258 2.375 17.3277 2.375 17.3295C2.375 17.3314 2.375 17.3333 2.375 17.3352C2.375 17.337 2.375 17.3389 2.375 17.3408C2.375 17.3426 2.375 17.3445 2.375 17.3464C2.375 17.3482 2.375 17.3501 2.375 17.352C2.375 17.3538 2.375 17.3557 2.375 17.3575C2.375 17.3594 2.375 17.3613 2.375 17.3631C2.375 17.365 2.375 17.3668 2.375 17.3687C2.375 17.3705 2.375 17.3723 2.375 17.3742C2.375 17.376 2.375 17.3779 2.375 17.3797C2.375 17.3816 2.375 17.3834 2.375 17.3852C2.375 17.3871 2.375 17.3889 2.375 17.3907C2.375 17.3926 2.375 17.3944 2.375 17.3962C2.375 17.398 2.375 17.3999 2.375 17.4017C2.375 17.4035 2.375 17.4053 2.375 17.4071C2.375 17.4089 2.375 17.4108 2.375 17.4126C2.375 17.4144 2.375 17.4162 2.375 17.418C2.375 17.4198 2.375 17.4216 2.375 17.4234C2.375 17.4252 2.375 17.427 2.375 17.4288C2.375 17.4306 2.375 17.4324 2.375 17.4342C2.375 17.436 2.375 17.4378 2.375 17.4396C2.375 17.4414 2.375 17.4432 2.375 17.4449C2.375 17.4467 2.375 17.4485 2.375 17.4503C2.375 17.4521 2.375 17.4538 2.375 17.4556C2.375 17.4574 2.375 17.4592 2.375 17.4609C2.375 17.4627 2.375 17.4645 2.375 17.4662C2.375 17.468 2.375 17.4698 2.375 17.4715C2.375 17.4733 2.375 17.475 2.375 17.4768C2.375 17.4786 2.375 17.4803 2.375 17.4821C2.375 17.4838 2.375 17.4856 2.375 17.4873C2.375 17.4891 2.375 17.4908 2.375 17.4925C2.375 17.4943 2.375 17.496 2.375 17.4978C2.375 17.4995 2.375 17.5012 2.375 17.503C2.375 17.5047 2.375 17.5064 2.375 17.5081C2.375 17.5099 2.375 17.5116 2.375 17.5133C2.375 17.515 2.375 17.5168 2.375 17.5185C2.375 17.5202 2.375 17.5219 2.375 17.5236C2.375 17.5253 2.375 17.527 2.375 17.5287C2.375 17.5304 2.375 17.5321 2.375 17.5338C2.375 17.5355 2.375 17.5372 2.375 17.5389C2.375 17.5406 2.375 17.5423 2.375 17.544C2.375 17.5457 2.375 17.5474 2.375 17.5491C2.375 17.5508 2.375 17.5525 2.375 17.5541C2.375 17.5558 2.375 17.5575 2.375 17.5592C2.375 17.5608 2.375 17.5625 2.375 17.5642C2.375 17.5659 2.375 17.5675 2.375 17.5692C2.375 17.5709 2.375 17.5725 2.375 17.5742C2.375 17.5758 2.375 17.5775 2.375 17.5791C2.375 17.5808 2.375 17.5825 2.375 17.5841C2.375 17.5858 2.375 17.5874 2.375 17.589C2.375 17.5907 2.375 17.5923 2.375 17.594C2.375 17.5956 2.375 17.5972 2.375 17.5989C2.375 17.6005 2.375 17.6021 2.375 17.6038C2.375 17.6054 2.375 17.607 2.375 17.6086C2.375 17.6103 2.375 17.6119 2.375 17.6135C2.375 17.6151 2.375 17.6167 2.375 17.6183C2.375 17.62 2.375 17.6216 2.375 17.6232C2.375 17.6248 2.375 17.6264 2.375 17.628C2.375 17.6296 2.375 17.6312 2.375 17.6328C2.375 17.6344 2.375 17.636 2.375 17.6375C2.375 17.6391 2.375 17.6407 2.375 17.6423C2.375 17.6439 2.375 17.6455 2.375 17.6471C2.375 17.6486 2.375 17.6502 2.375 17.6518C2.375 17.6534 2.375 17.6549 2.375 17.6565C2.375 17.6581 2.375 17.6596 2.375 17.6612C2.375 17.6627 2.375 17.6643 2.375 17.6659C2.375 17.6674 2.375 17.669 2.375 17.6705C2.375 17.6721 2.375 17.6736 2.375 17.6752C2.375 17.6767 2.375 17.6782 2.375 17.6798C2.375 17.6813 2.375 17.6829 2.375 17.6844C2.375 17.6859 2.375 17.6875 2.375 17.689C2.375 17.6905 2.375 17.692 2.375 17.6936C2.375 17.6951 2.375 17.6966 2.375 17.6981C2.375 17.6996 2.375 17.7011 2.375 17.7026C2.375 17.7042 2.375 17.7057 2.375 17.7072C2.375 17.7087 2.375 17.7102 2.375 17.7117C2.375 17.7132 2.375 17.7147 2.375 17.7161C2.375 17.7176 2.375 17.7191 2.375 17.7206C2.375 17.7221 2.375 17.7236 2.375 17.7251C2.375 17.7265 2.375 17.728 2.375 17.7295C2.375 17.731 2.375 17.7324 2.375 17.7339C2.375 17.7354 2.375 17.7368 2.375 17.7383C2.375 17.7398 2.375 17.7412 2.375 17.7427C2.375 17.7441 2.375 17.7456 2.375 17.747C2.375 17.7485 2.375 17.7499 2.375 17.7514C2.375 17.7528 2.375 17.7543 2.375 17.7557C2.375 17.7571 2.375 17.7586 2.375 17.76C2.375 17.7614 2.375 17.7629 2.375 17.7643C2.375 17.7657 2.375 17.7671 2.375 17.7686C2.375 17.77 2.375 17.7714 2.375 17.7728C2.375 17.7742 2.375 17.7756 2.375 17.777C2.375 17.7784 2.375 17.7798 2.375 17.7812C2.375 17.7826 2.375 17.784 2.375 17.7854C2.375 17.7868 2.375 17.7882 2.375 17.7896C2.375 17.791 2.375 17.7924 2.375 17.7938C2.375 17.7951 2.375 17.7965 2.375 17.7979C2.375 17.7993 2.375 17.8006 2.375 17.802C2.375 17.8034 2.375 17.8047 2.375 17.8061C2.375 17.8075 2.375 17.8088 2.375 17.8102C2.375 17.8115 2.375 17.8129 2.375 17.8142C2.375 17.8156 2.375 17.8169 2.375 17.8183C2.375 17.8196 2.375 17.821 2.375 17.8223C2.375 17.8236 2.375 17.825 2.375 17.8263C2.375 17.8276 2.375 17.829 2.375 17.8303C2.375 17.8316 2.375 17.8329 2.375 17.8342C2.375 17.8356 2.375 17.8369 2.375 17.8382C2.375 17.8395 2.375 17.8408 2.375 17.8421C2.375 17.8434 2.375 17.8447 2.375 17.846C2.375 17.8473 2.375 17.8486 2.375 17.8499C2.375 17.8512 2.375 17.8525 2.375 17.8538C2.375 17.855 2.375 17.8563 2.375 17.8576C2.375 17.8589 2.375 17.8601 2.375 17.8614C2.375 17.8627 2.375 17.864 2.375 17.8652C2.375 17.8665 2.375 17.8677 2.375 17.869C2.375 17.8703 2.375 17.8715 2.375 17.8728C2.375 17.874 2.375 17.8753 2.375 17.8765C2.375 17.8777 2.375 17.879 2.375 17.8802C2.375 17.8815 2.375 17.8827 2.375 17.8839C2.375 17.8852 2.375 17.8864 2.375 17.8876C2.375 17.8888 2.375 17.89 2.375 17.8913C2.375 17.8925 2.375 17.8937 2.375 17.8949C2.375 17.8961 2.375 17.8973 2.375 17.8985C2.375 17.8997 2.375 17.9009 2.375 17.9021C2.375 17.9033 2.375 17.9045 2.375 17.9057C2.375 17.9069 2.375 17.9081 2.375 17.9092C2.375 17.9104 2.375 17.9116 2.375 17.9128C2.375 17.9139 2.375 17.9151 2.375 17.9163C2.375 17.9175 2.375 17.9186 2.375 17.9198C2.375 17.9209 2.375 17.9221 2.375 17.9233C2.375 17.9244 2.375 17.9256 2.375 17.9267C2.375 17.9278 2.375 17.929 2.375 17.9301C2.375 17.9313 2.375 17.9324 2.375 17.9335C2.375 17.9347 2.375 17.9358 2.375 17.9369C2.375 17.938 2.375 17.9392 2.375 17.9403C2.375 17.9414 2.375 17.9425 2.375 17.9436C2.375 17.9447 2.375 17.9458 2.375 17.9469C2.375 17.948 2.375 17.9491 2.375 17.9502C2.375 17.9513 2.375 17.9524 2.375 17.9535C2.375 17.9546 2.375 17.9557 2.375 17.9568C2.375 17.9579 2.375 17.9589 2.375 17.96C2.375 17.9611 2.375 17.9621 2.375 17.9632C2.375 17.9643 2.375 17.9653 2.375 17.9664C2.375 17.9675 2.375 17.9685 2.375 17.9696C2.375 17.9706 2.375 17.9717 2.375 17.9727C2.375 17.9738 2.375 17.9748 2.375 17.9758C2.375 17.9769 2.375 17.9779 2.375 17.9789C2.375 17.98 2.375 17.981 2.375 17.982C2.375 17.983 2.375 17.9841 2.375 17.9851C2.375 17.9861 2.375 17.9871 2.375 17.9881C2.375 17.9891 2.375 17.9901 2.375 17.9911C2.375 17.9921 2.375 17.9931 2.375 17.9941C2.375 17.9951 2.375 17.9961 2.375 17.9971C2.375 17.998 2.375 17.999 2.375 18H3.625C3.625 17.999 3.625 17.998 3.625 17.9971C3.625 17.9961 3.625 17.9951 3.625 17.9941C3.625 17.9931 3.625 17.9921 3.625 17.9911C3.625 17.9901 3.625 17.9891 3.625 17.9881C3.625 17.9871 3.625 17.9861 3.625 17.9851C3.625 17.9841 3.625 17.983 3.625 17.982C3.625 17.981 3.625 17.98 3.625 17.9789C3.625 17.9779 3.625 17.9769 3.625 17.9758C3.625 17.9748 3.625 17.9738 3.625 17.9727C3.625 17.9717 3.625 17.9706 3.625 17.9696C3.625 17.9685 3.625 17.9675 3.625 17.9664C3.625 17.9653 3.625 17.9643 3.625 17.9632C3.625 17.9621 3.625 17.9611 3.625 17.96C3.625 17.9589 3.625 17.9579 3.625 17.9568C3.625 17.9557 3.625 17.9546 3.625 17.9535C3.625 17.9524 3.625 17.9513 3.625 17.9502C3.625 17.9491 3.625 17.948 3.625 17.9469C3.625 17.9458 3.625 17.9447 3.625 17.9436C3.625 17.9425 3.625 17.9414 3.625 17.9403C3.625 17.9392 3.625 17.938 3.625 17.9369C3.625 17.9358 3.625 17.9347 3.625 17.9335C3.625 17.9324 3.625 17.9313 3.625 17.9301C3.625 17.929 3.625 17.9278 3.625 17.9267C3.625 17.9256 3.625 17.9244 3.625 17.9233C3.625 17.9221 3.625 17.9209 3.625 17.9198C3.625 17.9186 3.625 17.9175 3.625 17.9163C3.625 17.9151 3.625 17.9139 3.625 17.9128C3.625 17.9116 3.625 17.9104 3.625 17.9092C3.625 17.9081 3.625 17.9069 3.625 17.9057C3.625 17.9045 3.625 17.9033 3.625 17.9021C3.625 17.9009 3.625 17.8997 3.625 17.8985C3.625 17.8973 3.625 17.8961 3.625 17.8949C3.625 17.8937 3.625 17.8925 3.625 17.8913C3.625 17.89 3.625 17.8888 3.625 17.8876C3.625 17.8864 3.625 17.8852 3.625 17.8839C3.625 17.8827 3.625 17.8815 3.625 17.8802C3.625 17.879 3.625 17.8777 3.625 17.8765C3.625 17.8753 3.625 17.874 3.625 17.8728C3.625 17.8715 3.625 17.8703 3.625 17.869C3.625 17.8677 3.625 17.8665 3.625 17.8652C3.625 17.864 3.625 17.8627 3.625 17.8614C3.625 17.8601 3.625 17.8589 3.625 17.8576C3.625 17.8563 3.625 17.855 3.625 17.8538C3.625 17.8525 3.625 17.8512 3.625 17.8499C3.625 17.8486 3.625 17.8473 3.625 17.846C3.625 17.8447 3.625 17.8434 3.625 17.8421C3.625 17.8408 3.625 17.8395 3.625 17.8382C3.625 17.8369 3.625 17.8356 3.625 17.8342C3.625 17.8329 3.625 17.8316 3.625 17.8303C3.625 17.829 3.625 17.8276 3.625 17.8263C3.625 17.825 3.625 17.8236 3.625 17.8223C3.625 17.821 3.625 17.8196 3.625 17.8183C3.625 17.8169 3.625 17.8156 3.625 17.8142C3.625 17.8129 3.625 17.8115 3.625 17.8102C3.625 17.8088 3.625 17.8075 3.625 17.8061C3.625 17.8047 3.625 17.8034 3.625 17.802C3.625 17.8006 3.625 17.7993 3.625 17.7979C3.625 17.7965 3.625 17.7951 3.625 17.7938C3.625 17.7924 3.625 17.791 3.625 17.7896C3.625 17.7882 3.625 17.7868 3.625 17.7854C3.625 17.784 3.625 17.7826 3.625 17.7812C3.625 17.7798 3.625 17.7784 3.625 17.777C3.625 17.7756 3.625 17.7742 3.625 17.7728C3.625 17.7714 3.625 17.77 3.625 17.7686C3.625 17.7671 3.625 17.7657 3.625 17.7643C3.625 17.7629 3.625 17.7614 3.625 17.76C3.625 17.7586 3.625 17.7571 3.625 17.7557C3.625 17.7543 3.625 17.7528 3.625 17.7514C3.625 17.7499 3.625 17.7485 3.625 17.747C3.625 17.7456 3.625 17.7441 3.625 17.7427C3.625 17.7412 3.625 17.7398 3.625 17.7383C3.625 17.7368 3.625 17.7354 3.625 17.7339C3.625 17.7324 3.625 17.731 3.625 17.7295C3.625 17.728 3.625 17.7265 3.625 17.7251C3.625 17.7236 3.625 17.7221 3.625 17.7206C3.625 17.7191 3.625 17.7176 3.625 17.7161C3.625 17.7147 3.625 17.7132 3.625 17.7117C3.625 17.7102 3.625 17.7087 3.625 17.7072C3.625 17.7057 3.625 17.7042 3.625 17.7026C3.625 17.7011 3.625 17.6996 3.625 17.6981C3.625 17.6966 3.625 17.6951 3.625 17.6936C3.625 17.692 3.625 17.6905 3.625 17.689C3.625 17.6875 3.625 17.6859 3.625 17.6844C3.625 17.6829 3.625 17.6813 3.625 17.6798C3.625 17.6782 3.625 17.6767 3.625 17.6752C3.625 17.6736 3.625 17.6721 3.625 17.6705C3.625 17.669 3.625 17.6674 3.625 17.6659C3.625 17.6643 3.625 17.6627 3.625 17.6612C3.625 17.6596 3.625 17.6581 3.625 17.6565C3.625 17.6549 3.625 17.6534 3.625 17.6518C3.625 17.6502 3.625 17.6486 3.625 17.6471C3.625 17.6455 3.625 17.6439 3.625 17.6423C3.625 17.6407 3.625 17.6391 3.625 17.6375C3.625 17.636 3.625 17.6344 3.625 17.6328C3.625 17.6312 3.625 17.6296 3.625 17.628C3.625 17.6264 3.625 17.6248 3.625 17.6232C3.625 17.6216 3.625 17.62 3.625 17.6183C3.625 17.6167 3.625 17.6151 3.625 17.6135C3.625 17.6119 3.625 17.6103 3.625 17.6086C3.625 17.607 3.625 17.6054 3.625 17.6038C3.625 17.6021 3.625 17.6005 3.625 17.5989C3.625 17.5972 3.625 17.5956 3.625 17.594C3.625 17.5923 3.625 17.5907 3.625 17.589C3.625 17.5874 3.625 17.5858 3.625 17.5841C3.625 17.5825 3.625 17.5808 3.625 17.5791C3.625 17.5775 3.625 17.5758 3.625 17.5742C3.625 17.5725 3.625 17.5709 3.625 17.5692C3.625 17.5675 3.625 17.5659 3.625 17.5642C3.625 17.5625 3.625 17.5608 3.625 17.5592C3.625 17.5575 3.625 17.5558 3.625 17.5541C3.625 17.5525 3.625 17.5508 3.625 17.5491C3.625 17.5474 3.625 17.5457 3.625 17.544C3.625 17.5423 3.625 17.5406 3.625 17.5389C3.625 17.5372 3.625 17.5355 3.625 17.5338C3.625 17.5321 3.625 17.5304 3.625 17.5287C3.625 17.527 3.625 17.5253 3.625 17.5236C3.625 17.5219 3.625 17.5202 3.625 17.5185C3.625 17.5168 3.625 17.515 3.625 17.5133C3.625 17.5116 3.625 17.5099 3.625 17.5081C3.625 17.5064 3.625 17.5047 3.625 17.503C3.625 17.5012 3.625 17.4995 3.625 17.4978C3.625 17.496 3.625 17.4943 3.625 17.4925C3.625 17.4908 3.625 17.4891 3.625 17.4873C3.625 17.4856 3.625 17.4838 3.625 17.4821C3.625 17.4803 3.625 17.4786 3.625 17.4768C3.625 17.475 3.625 17.4733 3.625 17.4715C3.625 17.4698 3.625 17.468 3.625 17.4662C3.625 17.4645 3.625 17.4627 3.625 17.4609C3.625 17.4592 3.625 17.4574 3.625 17.4556C3.625 17.4538 3.625 17.4521 3.625 17.4503C3.625 17.4485 3.625 17.4467 3.625 17.4449C3.625 17.4432 3.625 17.4414 3.625 17.4396C3.625 17.4378 3.625 17.436 3.625 17.4342C3.625 17.4324 3.625 17.4306 3.625 17.4288C3.625 17.427 3.625 17.4252 3.625 17.4234C3.625 17.4216 3.625 17.4198 3.625 17.418C3.625 17.4162 3.625 17.4144 3.625 17.4126C3.625 17.4108 3.625 17.4089 3.625 17.4071C3.625 17.4053 3.625 17.4035 3.625 17.4017C3.625 17.3999 3.625 17.398 3.625 17.3962C3.625 17.3944 3.625 17.3926 3.625 17.3907C3.625 17.3889 3.625 17.3871 3.625 17.3852C3.625 17.3834 3.625 17.3816 3.625 17.3797C3.625 17.3779 3.625 17.376 3.625 17.3742C3.625 17.3723 3.625 17.3705 3.625 17.3687C3.625 17.3668 3.625 17.365 3.625 17.3631C3.625 17.3613 3.625 17.3594 3.625 17.3575C3.625 17.3557 3.625 17.3538 3.625 17.352C3.625 17.3501 3.625 17.3482 3.625 17.3464C3.625 17.3445 3.625 17.3426 3.625 17.3408C3.625 17.3389 3.625 17.337 3.625 17.3352C3.625 17.3333 3.625 17.3314 3.625 17.3295C3.625 17.3277 3.625 17.3258 3.625 17.3239C3.625 17.322 3.625 17.3201 3.625 17.3182C3.625 17.3164 3.625 17.3145 3.625 17.3126C3.625 17.3107 3.625 17.3088 3.625 17.3069C3.625 17.305 3.625 17.3031 3.625 17.3012C3.625 17.2993 3.625 17.2974 3.625 17.2955C3.625 17.2936 3.625 17.2917 3.625 17.2898C3.625 17.2879 3.625 17.286 3.625 17.2841C3.625 17.2821 3.625 17.2802 3.625 17.2783C3.625 17.2764 3.625 17.2745 3.625 17.2726C3.625 17.2706 3.625 17.2687 3.625 17.2668C3.625 17.2649 3.625 17.263 3.625 17.261C3.625 17.2591 3.625 17.2572 3.625 17.2552C3.625 17.2533 3.625 17.2514 3.625 17.2494C3.625 17.2475 3.625 17.2456 3.625 17.2436C3.625 17.2417 3.625 17.2397 3.625 17.2378C3.625 17.2359 3.625 17.2339 3.625 17.232C3.625 17.23 3.625 17.2281 3.625 17.2261C3.625 17.2242 3.625 17.2222 3.625 17.2203C3.625 17.2183 3.625 17.2164 3.625 17.2144C3.625 17.2124 3.625 17.2105 3.625 17.2085C3.625 17.2066 3.625 17.2046 3.625 17.2026C3.625 17.2007 3.625 17.1987 3.625 17.1967C3.625 17.1948 3.625 17.1928 3.625 17.1908C3.625 17.1888 3.625 17.1869 3.625 17.1849C3.625 17.1829 3.625 17.1809 3.625 17.179C3.625 17.177 3.625 17.175 3.625 17.173C3.625 17.171 3.625 17.169 3.625 17.167C3.625 17.1651 3.625 17.1631 3.625 17.1611C3.625 17.1591 3.625 17.1571 3.625 17.1551C3.625 17.1531 3.625 17.1511 3.625 17.1491C3.625 17.1471 3.625 17.1451 3.625 17.1431C3.625 17.1411 3.625 17.1391 3.625 17.1371C3.625 17.1351 3.625 17.1331 3.625 17.1311C3.625 17.1291 3.625 17.1271 3.625 17.125C3.625 17.123 3.625 17.121 3.625 17.119C3.625 17.117 3.625 17.115 3.625 17.1129C3.625 17.1109 3.625 17.1089 3.625 17.1069C3.625 17.1049 3.625 17.1028 3.625 17.1008C3.625 17.0988 3.625 17.0968 3.625 17.0947C3.625 17.0927 3.625 17.0907 3.625 17.0886C3.625 17.0866 3.625 17.0846 3.625 17.0825C3.625 17.0805 3.625 17.0785 3.625 17.0764C3.625 17.0744 3.625 17.0723 3.625 17.0703C3.625 17.0683 3.625 17.0662 3.625 17.0642C3.625 17.0621 3.625 17.0601 3.625 17.058C3.625 17.056 3.625 17.0539 3.625 17.0519C3.625 17.0498 3.625 17.0478 3.625 17.0457C3.625 17.0437 3.625 17.0416 3.625 17.0395C3.625 17.0375 3.625 17.0354 3.625 17.0334C3.625 17.0313 3.625 17.0292 3.625 17.0272C3.625 17.0251 3.625 17.023 3.625 17.021C3.625 17.0189 3.625 17.0168 3.625 17.0148C3.625 17.0127 3.625 17.0106 3.625 17.0085C3.625 17.0065 3.625 17.0044 3.625 17.0023C3.625 17.0002 3.625 16.9982 3.625 16.9961C3.625 16.994 3.625 16.9919 3.625 16.9898C3.625 16.9878 3.625 16.9857 3.625 16.9836C3.625 16.9815 3.625 16.9794 3.625 16.9773C3.625 16.9752 3.625 16.9731 3.625 16.971C3.625 16.969 3.625 16.9669 3.625 16.9648C3.625 16.9627 3.625 16.9606 3.625 16.9585C3.625 16.9564 3.625 16.9543 3.625 16.9522C3.625 16.9501 3.625 16.948 3.625 16.9459C3.625 16.9438 3.625 16.9417 3.625 16.9396C3.625 16.9375 3.625 16.9354 3.625 16.9332C3.625 16.9311 3.625 16.929 3.625 16.9269C3.625 16.9248 3.625 16.9227 3.625 16.9206C3.625 16.9185 3.625 16.9163 3.625 16.9142C3.625 16.9121 3.625 16.91 3.625 16.9079C3.625 16.9058 3.625 16.9036 3.625 16.9015C3.625 16.8994 3.625 16.8973 3.625 16.8951C3.625 16.893 3.625 16.8909 3.625 16.8888C3.625 16.8866 3.625 16.8845 3.625 16.8824C3.625 16.8802 3.625 16.8781 3.625 16.876C3.625 16.8739 3.625 16.8717 3.625 16.8696C3.625 16.8674 3.625 16.8653 3.625 16.8632C3.625 16.861 3.625 16.8589 3.625 16.8568C3.625 16.8546 3.625 16.8525 3.625 16.8503C3.625 16.8482 3.625 16.846 3.625 16.8439C3.625 16.8418 3.625 16.8396 3.625 16.8375C3.625 16.8353 3.625 16.8332 3.625 16.831C3.625 16.8289 3.625 16.8267 3.625 16.8246C3.625 16.8224 3.625 16.8203 3.625 16.8181C3.625 16.8159 3.625 16.8138 3.625 16.8116C3.625 16.8095 3.625 16.8073 3.625 16.8052C3.625 16.803 3.625 16.8008 3.625 16.7987C3.625 16.7965 3.625 16.7944 3.625 16.7922C3.625 16.79 3.625 16.7879 3.625 16.7857C3.625 16.7835 3.625 16.7814 3.625 16.7792C3.625 16.777 3.625 16.7749 3.625 16.7727C3.625 16.7705 3.625 16.7683 3.625 16.7662C3.625 16.764 3.625 16.7618 3.625 16.7596C3.625 16.7575 3.625 16.7553 3.625 16.7531C3.625 16.7509 3.625 16.7488 3.625 16.7466C3.625 16.7444 3.625 16.7422 3.625 16.74C3.625 16.7379 3.625 16.7357 3.625 16.7335C3.625 16.7313 3.625 16.7291 3.625 16.7269C3.625 16.7248 3.625 16.7226 3.625 16.7204C3.625 16.7182 3.625 16.716 3.625 16.7138C3.625 16.7116 3.625 16.7094 3.625 16.7072C3.625 16.7051 3.625 16.7029 3.625 16.7007C3.625 16.6985 3.625 16.6963 3.625 16.6941C3.625 16.6919 3.625 16.6897 3.625 16.6875C3.625 16.6853 3.625 16.6831 3.625 16.6809C3.625 16.6787 3.625 16.6765 3.625 16.6743C3.625 16.6721 3.625 16.6699 3.625 16.6677C3.625 16.6655 3.625 16.6633 3.625 16.6611C3.625 16.6589 3.625 16.6567 3.625 16.6545C3.625 16.6523 3.625 16.6501 3.625 16.6478C3.625 16.6456 3.625 16.6434 3.625 16.6412C3.625 16.639 3.625 16.6368 3.625 16.6346C3.625 16.6324 3.625 16.6302 3.625 16.628C3.625 16.6257 3.625 16.6235 3.625 16.6213C3.625 16.6191 3.625 16.6169 3.625 16.6147C3.625 16.6124 3.625 16.6102 3.625 16.608C3.625 16.6058 3.625 16.6036 3.625 16.6013C3.625 16.5991 3.625 16.5969 3.625 16.5947C3.625 16.5925 3.625 16.5902 3.625 16.588C3.625 16.5858 3.625 16.5836 3.625 16.5813C3.625 16.5791 3.625 16.5769 3.625 16.5747C3.625 16.5724 3.625 16.5702 3.625 16.568C3.625 16.5658 3.625 16.5635 3.625 16.5613C3.625 16.5591 3.625 16.5568 3.625 16.5546C3.625 16.5524 3.625 16.5501 3.625 16.5479C3.625 16.5457 3.625 16.5434 3.625 16.5412C3.625 16.539 3.625 16.5367 3.625 16.5345C3.625 16.5323 3.625 16.53 3.625 16.5278C3.625 16.5256 3.625 16.5233 3.625 16.5211C3.625 16.5189 3.625 16.5166 3.625 16.5144C3.625 16.5121 3.625 16.5099 3.625 16.5077C3.625 16.5054 3.625 16.5032 3.625 16.5009C3.625 16.4987 3.625 16.4964 3.625 16.4942C3.625 16.492 3.625 16.4897 3.625 16.4875C3.625 16.4852 3.625 16.483 3.625 16.4807C3.625 16.4785 3.625 16.4762 3.625 16.474C3.625 16.4718 3.625 16.4695 3.625 16.4673C3.625 16.465 3.625 16.4628 3.625 16.4605C3.625 16.4583 3.625 16.456 3.625 16.4538C3.625 16.4515 3.625 16.4493 3.625 16.447C3.625 16.4448 3.625 16.4425 3.625 16.4403C3.625 16.438 3.625 16.4357 3.625 16.4335C3.625 16.4312 3.625 16.429 3.625 16.4267C3.625 16.4245 3.625 16.4222 3.625 16.42C3.625 16.4177 3.625 16.4155 3.625 16.4132C3.625 16.4109 3.625 16.4087 3.625 16.4064C3.625 16.4042 3.625 16.4019 3.625 16.3997C3.625 16.3974 3.625 16.3951 3.625 16.3929C3.625 16.3906 3.625 16.3884 3.625 16.3861C3.625 16.3838 3.625 16.3816 3.625 16.3793C3.625 16.377 3.625 16.3748 3.625 16.3725C3.625 16.3703 3.625 16.368 3.625 16.3657C3.625 16.3635 3.625 16.3612 3.625 16.3589C3.625 16.3567 3.625 16.3544 3.625 16.3522C3.625 16.3499 3.625 16.3476 3.625 16.3454C3.625 16.3431 3.625 16.3408 3.625 16.3386C3.625 16.3363 3.625 16.334 3.625 16.3318C3.625 16.3295 3.625 16.3272 3.625 16.325C3.625 16.3227 3.625 16.3204 3.625 16.3182C3.625 16.3159 3.625 16.3136 3.625 16.3113C3.625 16.3091 3.625 16.3068 3.625 16.3045C3.625 16.3023 3.625 16.3 3.625 16.2977C3.625 16.2955 3.625 16.2932 3.625 16.2909C3.625 16.2886 3.625 16.2864 3.625 16.2841C3.625 16.2818 3.625 16.2796 3.625 16.2773C3.625 16.275 3.625 16.2727 3.625 16.2705C3.625 16.2682 3.625 16.2659 3.625 16.2637C3.625 16.2614 3.625 16.2591 3.625 16.2568C3.625 16.2546 3.625 16.2523 3.625 16.25C3.625 16.2477 3.625 16.2455 3.625 16.2432C3.625 16.2409 3.625 16.2386 3.625 16.2364C3.625 16.2341 3.625 16.2318 3.625 16.2295C3.625 16.2273 3.625 16.225 3.625 16.2227C3.625 16.2204 3.625 16.2182 3.625 16.2159C3.625 16.2136 3.625 16.2113 3.625 16.2091C3.625 16.2068 3.625 16.2045 3.625 16.2022C3.625 16.2 3.625 16.1977 3.625 16.1954C3.625 16.1931 3.625 16.1908 3.625 16.1886C3.625 16.1863 3.625 16.184 3.625 16.1817C3.625 16.1795 3.625 16.1772 3.625 16.1749C3.625 16.1726 3.625 16.1703 3.625 16.1681C3.625 16.1658 3.625 16.1635 3.625 16.1612C3.625 16.159 3.625 16.1567 3.625 16.1544C3.625 16.1521 3.625 16.1498 3.625 16.1476C3.625 16.1453 3.625 16.143 3.625 16.1407C3.625 16.1385 3.625 16.1362 3.625 16.1339C3.625 16.1316 3.625 16.1293 3.625 16.1271C3.625 16.1248 3.625 16.1225 3.625 16.1202C3.625 16.1179 3.625 16.1157 3.625 16.1134C3.625 16.1111 3.625 16.1088 3.625 16.1066C3.625 16.1043 3.625 16.102 3.625 16.0997C3.625 16.0974 3.625 16.0952 3.625 16.0929C3.625 16.0906 3.625 16.0883 3.625 16.086C3.625 16.0838 3.625 16.0815 3.625 16.0792C3.625 16.0769 3.625 16.0747 3.625 16.0724C3.625 16.0701 3.625 16.0678 3.625 16.0655C3.625 16.0633 3.625 16.061 3.625 16.0587C3.625 16.0564 3.625 16.0542 3.625 16.0519C3.625 16.0496 3.625 16.0473 3.625 16.045C3.625 16.0428 3.625 16.0405 3.625 16.0382C3.625 16.0359 3.625 16.0337 3.625 16.0314C3.625 16.0291 3.625 16.0268 3.625 16.0245C3.625 16.0223 3.625 16.02 3.625 16.0177C3.625 16.0154 3.625 16.0132 3.625 16.0109C3.625 16.0086 3.625 16.0063 3.625 16.0041C3.625 16.0018 3.625 15.9995 3.625 15.9972C3.625 15.995 3.625 15.9927 3.625 15.9904C3.625 15.9881 3.625 15.9859 3.625 15.9836C3.625 15.9813 3.625 15.979 3.625 15.9768C3.625 15.9745 3.625 15.9722 3.625 15.9699C3.625 15.9677 3.625 15.9654 3.625 15.9631C3.625 15.9608 3.625 15.9586 3.625 15.9563C3.625 15.954 3.625 15.9517 3.625 15.9495C3.625 15.9472 3.625 15.9449 3.625 15.9427C3.625 15.9404 3.625 15.9381 3.625 15.9358C3.625 15.9336 3.625 15.9313 3.625 15.929C3.625 15.9268 3.625 15.9245 3.625 15.9222C3.625 15.92 3.625 15.9177 3.625 15.9154C3.625 15.9131 3.625 15.9109 3.625 15.9086C3.625 15.9063 3.625 15.9041 3.625 15.9018C3.625 15.8995 3.625 15.8973 3.625 15.895C3.625 15.8927 3.625 15.8905 3.625 15.8882C3.625 15.8859 3.625 15.8837 3.625 15.8814C3.625 15.8791 3.625 15.8769 3.625 15.8746C3.625 15.8723 3.625 15.8701 3.625 15.8678C3.625 15.8655 3.625 15.8633 3.625 15.861C3.625 15.8587 3.625 15.8565 3.625 15.8542C3.625 15.852 3.625 15.8497 3.625 15.8474C3.625 15.8452 3.625 15.8429 3.625 15.8406C3.625 15.8384 3.625 15.8361 3.625 15.8339C3.625 15.8316 3.625 15.8293 3.625 15.8271C3.625 15.8248 3.625 15.8226 3.625 15.8203C3.625 15.8181 3.625 15.8158 3.625 15.8135C3.625 15.8113 3.625 15.809 3.625 15.8068C3.625 15.8045 3.625 15.8023 3.625 15.8C3.625 15.7977 3.625 15.7955 3.625 15.7932C3.625 15.791 3.625 15.7887 3.625 15.7865C3.625 15.7842 3.625 15.782 3.625 15.7797C3.625 15.7775 3.625 15.7752 3.625 15.773C3.625 15.7707 3.625 15.7685 3.625 15.7662C3.625 15.764 3.625 15.7617 3.625 15.7595C3.625 15.7572 3.625 15.755 3.625 15.7527C3.625 15.7505 3.625 15.7482 3.625 15.746C3.625 15.7437 3.625 15.7415 3.625 15.7392C3.625 15.737 3.625 15.7347 3.625 15.7325C3.625 15.7303 3.625 15.728 3.625 15.7258C3.625 15.7235 3.625 15.7213 3.625 15.719C3.625 15.7168 3.625 15.7146 3.625 15.7123C3.625 15.7101 3.625 15.7078 3.625 15.7056C3.625 15.7034 3.625 15.7011 3.625 15.6989C3.625 15.6967 3.625 15.6944 3.625 15.6922C3.625 15.6899 3.625 15.6877 3.625 15.6855C3.625 15.6832 3.625 15.681 3.625 15.6788C3.625 15.6765 3.625 15.6743 3.625 15.6721C3.625 15.6698 3.625 15.6676 3.625 15.6654C3.625 15.6632 3.625 15.6609 3.625 15.6587C3.625 15.6565 3.625 15.6542 3.625 15.652C3.625 15.6498 3.625 15.6476 3.625 15.6453C3.625 15.6431 3.625 15.6409 3.625 15.6387C3.625 15.6364 3.625 15.6342 3.625 15.632C3.625 15.6298 3.625 15.6275 3.625 15.6253C3.625 15.6231 3.625 15.6209 3.625 15.6187C3.625 15.6164 3.625 15.6142 3.625 15.612C3.625 15.6098 3.625 15.6076 3.625 15.6053C3.625 15.6031 3.625 15.6009 3.625 15.5987C3.625 15.5965 3.625 15.5943 3.625 15.5921C3.625 15.5898 3.625 15.5876 3.625 15.5854C3.625 15.5832 3.625 15.581 3.625 15.5788C3.625 15.5766 3.625 15.5744 3.625 15.5722C3.625 15.57 3.625 15.5678 3.625 15.5655C3.625 15.5633 3.625 15.5611 3.625 15.5589C3.625 15.5567 3.625 15.5545 3.625 15.5523C3.625 15.5501 3.625 15.5479 3.625 15.5457C3.625 15.5435 3.625 15.5413 3.625 15.5391C3.625 15.5369 3.625 15.5347 3.625 15.5325C3.625 15.5303 3.625 15.5281 3.625 15.5259C3.625 15.5237 3.625 15.5216 3.625 15.5194C3.625 15.5172 3.625 15.515 3.625 15.5128C3.625 15.5106 3.625 15.5084 3.625 15.5062C3.625 15.504 3.625 15.5018 3.625 15.4996C3.625 15.4975 3.625 15.4953 3.625 15.4931C3.625 15.4909 3.625 15.4887 3.625 15.4865C3.625 15.4844 3.625 15.4822 3.625 15.48C3.625 15.4778 3.625 15.4756 3.625 15.4735C3.625 15.4713 3.625 15.4691 3.625 15.4669C3.625 15.4647 3.625 15.4626 3.625 15.4604C3.625 15.4582 3.625 15.4561 3.625 15.4539C3.625 15.4517 3.625 15.4495 3.625 15.4474C3.625 15.4452 3.625 15.443 3.625 15.4409C3.625 15.4387 3.625 15.4365 3.625 15.4344C3.625 15.4322 3.625 15.43 3.625 15.4279C3.625 15.4257 3.625 15.4235 3.625 15.4214C3.625 15.4192 3.625 15.4171 3.625 15.4149C3.625 15.4127 3.625 15.4106 3.625 15.4084C3.625 15.4063 3.625 15.4041 3.625 15.402C3.625 15.3998 3.625 15.3977 3.625 15.3955C3.625 15.3934 3.625 15.3912 3.625 15.3891C3.625 15.3869 3.625 15.3848 3.625 15.3826C3.625 15.3805 3.625 15.3783 3.625 15.3762C3.625 15.374 3.625 15.3719 3.625 15.3697C3.625 15.3676 3.625 15.3655 3.625 15.3633C3.625 15.3612 3.625 15.359 3.625 15.3569C3.625 15.3548 3.625 15.3526 3.625 15.3505C3.625 15.3484 3.625 15.3462 3.625 15.3441C3.625 15.342 3.625 15.3398 3.625 15.3377C3.625 15.3356 3.625 15.3335 3.625 15.3313C3.625 15.3292 3.625 15.3271 3.625 15.325C3.625 15.3228 3.625 15.3207 3.625 15.3186C3.625 15.3165 3.625 15.3143 3.625 15.3122C3.625 15.3101 3.625 15.308 3.625 15.3059C3.625 15.3038 3.625 15.3016 3.625 15.2995C3.625 15.2974 3.625 15.2953 3.625 15.2932C3.625 15.2911 3.625 15.289 3.625 15.2869C3.625 15.2848 3.625 15.2827 3.625 15.2806C3.625 15.2784 3.625 15.2763 3.625 15.2742C3.625 15.2721 3.625 15.27 3.625 15.2679C3.625 15.2658 3.625 15.2637 3.625 15.2616C3.625 15.2595 3.625 15.2575 3.625 15.2554C3.625 15.2533 3.625 15.2512 3.625 15.2491C3.625 15.247 3.625 15.2449 3.625 15.2428C3.625 15.2407 3.625 15.2386 3.625 15.2366C3.625 15.2345 3.625 15.2324 3.625 15.2303C3.625 15.2282 3.625 15.2261 3.625 15.2241C3.625 15.222 3.625 15.2199 3.625 15.2178C3.625 15.2158 3.625 15.2137 3.625 15.2116C3.625 15.2095 3.625 15.2075 3.625 15.2054C3.625 15.2033 3.625 15.2013 3.625 15.1992C3.625 15.1971 3.625 15.1951 3.625 15.193C3.625 15.1909 3.625 15.1889 3.625 15.1868C3.625 15.1847 3.625 15.1827 3.625 15.1806C3.625 15.1786 3.625 15.1765 3.625 15.1745C3.625 15.1724 3.625 15.1704 3.625 15.1683C3.625 15.1663 3.625 15.1642 3.625 15.1622C3.625 15.1601 3.625 15.1581 3.625 15.156C3.625 15.154 3.625 15.1519 3.625 15.1499C3.625 15.1478 3.625 15.1458 3.625 15.1438C3.625 15.1417 3.625 15.1397 3.625 15.1377C3.625 15.1356 3.625 15.1336 3.625 15.1316C3.625 15.1295 3.625 15.1275 3.625 15.1255C3.625 15.1234 3.625 15.1214 3.625 15.1194C3.625 15.1174 3.625 15.1153 3.625 15.1133C3.625 15.1113 3.625 15.1093 3.625 15.1073C3.625 15.1052 3.625 15.1032 3.625 15.1012C3.625 15.0992 3.625 15.0972 3.625 15.0952C3.625 15.0932 3.625 15.0911 3.625 15.0891C3.625 15.0871 3.625 15.0851 3.625 15.0831C3.625 15.0811 3.625 15.0791 3.625 15.0771C3.625 15.0751 3.625 15.0731 3.625 15.0711C3.625 15.0691 3.625 15.0671 3.625 15.0651C3.625 15.0631 3.625 15.0611 3.625 15.0592C3.625 15.0572 3.625 15.0552 3.625 15.0532C3.625 15.0512 3.625 15.0492 3.625 15.0472C3.625 15.0453 3.625 15.0433 3.625 15.0413C3.625 15.0393 3.625 15.0373 3.625 15.0354C3.625 15.0334 3.625 15.0314 3.625 15.0294C3.625 15.0275 3.625 15.0255 3.625 15.0235C3.625 15.0216 3.625 15.0196 3.625 15.0176C3.625 15.0157 3.625 15.0137 3.625 15.0117C3.625 15.0098 3.625 15.0078 3.625 15.0059C3.625 15.0039 3.625 15.002 3.625 15H2.375Z" fill="#0066FF"/>
</g>
</svg>
