<svg width="18" height="18" viewBox="0 0 18 18" fill="none" xmlns="http://www.w3.org/2000/svg">
<g id="settings-1">
<path id="Vector" d="M14.8251 5.00116C14.6779 4.7628 14.4363 4.58824 14.1532 4.51706C13.8694 4.44587 13.5677 4.48331 13.3138 4.62095C12.8917 4.84926 12.3829 4.849 11.9612 4.62026L11.5241 4.38325C11.1285 4.16869 10.8821 3.75475 10.8821 3.30469C10.8821 2.73094 10.3882 2.25 9.77752 2.25H8.2224C7.61167 2.25 7.11778 2.73094 7.11778 3.30469C7.11778 3.75478 6.87145 4.16877 6.47587 4.38348L6.03934 4.62043C5.61756 4.84936 5.10864 4.84955 4.68669 4.62095C4.43274 4.48331 4.13046 4.44586 3.84673 4.51706C3.56356 4.58825 3.32197 4.7628 3.17476 5.00116L2.39829 6.26467C2.25165 6.50303 2.21175 6.78674 2.2876 7.05252C2.36345 7.31884 2.54886 7.5456 2.80282 7.68322C3.21832 7.90875 3.47712 8.3436 3.47726 8.81633L3.47737 9.18367C3.47751 9.6564 3.21884 10.0913 2.80338 10.3168C2.54942 10.4549 2.36344 10.6812 2.2876 10.9469C2.21176 11.2132 2.25164 11.497 2.39829 11.7353L3.17588 12.9989C3.32251 13.2372 3.56411 13.4117 3.8473 13.483C4.13104 13.5542 4.43274 13.5167 4.68725 13.379C5.10926 13.1507 5.61802 13.151 6.03979 13.3798L6.47528 13.616C6.87119 13.8307 7.11777 14.2449 7.11777 14.6953C7.11777 15.2691 7.6116 15.75 8.2224 15.75H9.77707C10.3883 15.75 10.8817 15.2691 10.8817 14.6953C10.882 14.2449 11.1288 13.8307 11.5247 13.616L11.9607 13.3797C12.3825 13.1509 12.8913 13.1507 13.3133 13.379C13.5678 13.5166 13.8695 13.5542 14.1527 13.483C14.4364 13.4117 14.678 13.2372 14.8246 12.9989L15.6017 11.7353C15.7483 11.497 15.7882 11.2132 15.7124 10.9474C15.6365 10.6812 15.4511 10.4544 15.1972 10.3168C14.7817 10.0913 14.523 9.6564 14.523 9.18367V8.81633C14.523 8.3436 14.7817 7.90875 15.1972 7.68322C15.4511 7.54507 15.6365 7.31882 15.7124 7.05304C15.7882 6.78672 15.7483 6.50302 15.6017 6.26466L14.8251 5.00116Z" stroke="#BABABA" stroke-width="1.25" stroke-linecap="round"/>
<path id="Vector_2" d="M11.25 9C11.25 10.2427 10.2427 11.25 9 11.25C7.75732 11.25 6.75 10.2427 6.75 9C6.75 7.75732 7.75732 6.75 9 6.75C10.2427 6.75 11.25 7.75732 11.25 9Z" stroke="#BABABA" stroke-width="1.25" stroke-linecap="round"/>
</g>
</svg>
