<svg width="16" height="16" viewBox="0 0 16 16" fill="none" xmlns="http://www.w3.org/2000/svg">
<g id="shopify">
<path id="Vector" d="M10.363 2.37795C10.363 2.37795 10.2 2.42684 9.92298 2.51647C9.87409 2.3698 9.80891 2.1824 9.71114 2.00315C9.40152 1.40835 8.94523 1.09873 8.39117 1.09058C8.35043 1.09058 8.31784 1.09058 8.2771 1.09873C8.2608 1.08243 8.24451 1.05799 8.22821 1.04169C7.99192 0.780957 7.6823 0.658738 7.31564 0.666886C6.60677 0.691329 5.8979 1.20465 5.3194 2.11722C4.912 2.76091 4.61053 3.56755 4.5209 4.18679C3.70611 4.43938 3.13575 4.61863 3.11946 4.61863C2.70391 4.749 2.69576 4.7653 2.63873 5.14825C2.59799 5.44158 1.52246 13.7851 1.52246 13.7851L10.4689 15.3332V2.36166C10.4282 2.36166 10.3874 2.3698 10.363 2.37795ZM8.2934 3.02164C7.82082 3.1683 7.29935 3.33126 6.78603 3.48607C6.93269 2.92386 7.20972 2.3698 7.55193 2.00315C7.6823 1.86463 7.85341 1.71797 8.06525 1.62834C8.2608 2.04389 8.30154 2.62239 8.2934 3.02164ZM7.32379 1.13947C7.48675 1.13947 7.63341 1.17206 7.75563 1.25354C7.56008 1.35131 7.38083 1.49798 7.20157 1.68538C6.75344 2.16611 6.40307 2.92386 6.26456 3.64903C5.83272 3.7794 5.41717 3.90976 5.02607 4.03198C5.27051 2.88312 6.23197 1.17206 7.32379 1.13947ZM5.93864 7.64967C5.98753 8.40742 7.99192 8.57853 8.10599 10.3629C8.19562 11.7644 7.36453 12.7258 6.15864 12.7992C4.7246 12.8888 3.9261 12.0414 3.9261 12.0414L4.22758 10.7459C4.22758 10.7459 5.02607 11.3488 5.66161 11.3081C6.07716 11.2836 6.22382 10.9414 6.21567 10.7051C6.15049 9.71109 4.5209 9.76813 4.42313 8.13854C4.3335 6.76154 5.23792 5.37639 7.22602 5.24603C8.00007 5.19714 8.39117 5.39269 8.39117 5.39269L7.93489 7.09561C7.93489 7.09561 7.42971 6.86746 6.82677 6.90006C5.94679 6.95709 5.93049 7.51115 5.93864 7.64967ZM8.76598 2.87498C8.75783 2.51647 8.71709 2.01129 8.54598 1.57945C9.08375 1.68538 9.35263 2.28832 9.4667 2.65498C9.263 2.72017 9.02671 2.7935 8.76598 2.87498ZM10.7622 15.3006L14.4777 14.3799C14.4777 14.3799 12.8807 3.5757 12.8725 3.50237C12.8644 3.42904 12.7992 3.3883 12.7422 3.38015C12.6851 3.372 11.6422 3.3557 11.6422 3.3557C11.6422 3.3557 11.0067 2.73646 10.7622 2.50017V15.3006Z" fill="#08C710"/>
</g>
</svg>
