<svg width="25" height="24" viewBox="0 0 25 24" fill="none" xmlns="http://www.w3.org/2000/svg">
<g id="shopping-cart">
<path id="Vector" d="M3.25 5L5.12153 5.62385C5.81699 5.85566 6.32989 6.44939 6.4582 7.17114L7.55668 13.3501C7.72638 14.3046 8.55628 15 9.5258 15H17.146C18.0368 15 18.8202 14.4109 19.0674 13.5551L20.5119 8.55508C20.8813 7.27618 19.9216 6 18.5904 6H9.25M10.25 18.5C10.25 19.3284 9.57843 20 8.75 20C7.92157 20 7.25 19.3284 7.25 18.5C7.25 17.6716 7.92157 17 8.75 17C9.57843 17 10.25 17.6716 10.25 18.5ZM18.25 18.5C18.25 19.3284 17.5784 20 16.75 20C15.9216 20 15.25 19.3284 15.25 18.5C15.25 17.6716 15.9216 17 16.75 17C17.5784 17 18.25 17.6716 18.25 18.5Z" stroke="white" stroke-width="1.25" stroke-linecap="round"/>
</g>
</svg>
