<svg width="136" height="68" viewBox="0 0 136 68" fill="none" xmlns="http://www.w3.org/2000/svg">
<path id="Switch" d="M0 68C7.80676e-07 59.0701 1.75887 50.2277 5.17619 41.9775C8.59352 33.7274 13.6024 26.2311 19.9167 19.9167C26.2311 13.6024 33.7274 8.59351 41.9775 5.17619C50.2277 1.75887 59.0701 -1.17101e-06 68 0C76.9299 1.17101e-06 85.7723 1.75887 94.0225 5.1762C102.273 8.59352 109.769 13.6024 116.083 19.9167C122.398 26.2311 127.406 33.7274 130.824 41.9775C134.241 50.2277 136 59.0701 136 68L108.8 68C108.8 62.6421 107.745 57.3366 105.694 52.3865C103.644 47.4364 100.639 42.9387 96.85 39.15C93.0613 35.3614 88.5636 32.3561 83.6135 30.3057C78.6634 28.2553 73.3579 27.2 68 27.2C62.6421 27.2 57.3366 28.2553 52.3865 30.3057C47.4364 32.3561 42.9387 35.3614 39.15 39.15C35.3614 42.9387 32.3561 47.4364 30.3057 52.3865C28.2553 57.3366 27.2 62.6421 27.2 68L0 68Z" fill="#747474" fill-opacity="0.2"/>
</svg>
