<svg width="124" height="68" viewBox="0 0 124 68" fill="none" xmlns="http://www.w3.org/2000/svg">
<path id="Switch" d="M0 68C1.264e-06 53.5415 4.60854 39.4593 13.1565 27.7982C21.7044 16.137 33.7467 7.50403 47.5349 3.15264C61.3231 -1.19876 76.1394 -1.04201 89.8324 3.60012C103.525 8.24224 115.382 17.1281 123.682 28.9674L101.409 44.5805C96.4295 37.4769 89.3153 32.1453 81.0995 29.3601C72.8836 26.5748 63.9939 26.4807 55.721 29.0916C47.448 31.7024 40.2226 36.8822 35.0939 43.8789C29.9651 50.8756 27.2 59.3249 27.2 68L0 68Z" fill="url(#paint0_linear_32_1764)"/>
<defs>
<linearGradient id="paint0_linear_32_1764" x1="1.78157e-07" y1="73.25" x2="136" y2="68" gradientUnits="userSpaceOnUse">
<stop stop-color="#FBFF46"/>
<stop offset="1" stop-color="#08C710"/>
</linearGradient>
</defs>
</svg>
