<svg width="24" height="24" viewBox="0 0 24 24" fill="none" xmlns="http://www.w3.org/2000/svg">
<g id="tickets">
<path id="Vector" d="M20 17H6C4.89543 17 4 16.1046 4 15V14C4 13.4477 4.47452 13.0207 4.95897 12.7555C5.57933 12.4159 6 11.7571 6 11C6 10.2429 5.57933 9.58407 4.95897 9.24447C4.47452 8.97928 4 8.55229 4 8V7M20 17C21.1046 17 22 16.1046 22 15V14C22 13.4477 21.5255 13.0207 21.041 12.7555C20.4207 12.4159 20 11.7571 20 11C20 10.2429 20.4207 9.58407 21.041 9.24447C21.5255 8.97928 22 8.55229 22 8V7C22 5.89543 21.1046 5 20 5H6C4.89543 5 4 5.89543 4 7M20 17C20 18.1046 19.1046 19 18 19H4C2.89543 19 2 18.1046 2 17V16C2 15.4477 2.47452 15.0207 2.95897 14.7555C3.57933 14.4159 4 13.7571 4 13C4 12.2429 3.57933 11.5841 2.95897 11.2445C2.47452 10.9793 2 10.5523 2 10V9C2 7.89543 2.89543 7 4 7M8.5 8V10M8.5 12V14M8.5 16V17M8.5 6V5M11.5 14H18M11.5 11H15" stroke="white" stroke-width="1.5" stroke-linecap="round"/>
</g>
</svg>
