<svg width="18" height="18" viewBox="0 0 18 18" fill="none" xmlns="http://www.w3.org/2000/svg">
<g id="translate">
<path id="Vector" d="M9 16.125C12.935 16.125 16.125 12.935 16.125 9C16.125 5.06497 12.935 1.875 9 1.875M9 16.125C5.06497 16.125 1.875 12.935 1.875 9C1.875 5.06497 5.06497 1.875 9 1.875M9 16.125C10.6568 16.125 12 12.935 12 9C12 5.06497 10.6568 1.875 9 1.875M9 16.125C7.34314 16.125 6 12.935 6 9C6 5.06497 7.34314 1.875 9 1.875M2.25 6.75H15.75M2.25 11.25H15.75" stroke="#252727" stroke-width="0.9375" stroke-linecap="round"/>
</g>
</svg>
